<svg width="496" height="72" viewBox="0 0 496 72" fill="none" xmlns="http://www.w3.org/2000/svg">
<rect x="1" y="1" width="494" height="70" rx="14" fill="white" stroke="#B6B6BB" stroke-width="2"/>
<path d="M0 15C0 6.71573 6.71573 0 15 0H48V72H15C6.71573 72 0 65.2843 0 57V15Z" fill="#F9D7CD"/>
<circle cx="24.5" cy="35.5" r="11.5" stroke="#C9431A" stroke-width="2"/>
<path d="M24.606 27.2861C25.2149 27.2861 25.7063 27.7839 25.6984 28.3928L25.5768 37.773C25.5699 38.3017 25.1394 38.7266 24.6107 38.7266C24.0824 38.7266 23.6521 38.3023 23.6447 37.774L23.5137 28.3939C23.5051 27.7846 23.9967 27.2861 24.606 27.2861ZM23.4297 42.208C23.4297 41.8796 23.5324 41.6023 23.7379 41.376C23.951 41.1497 24.263 41.0366 24.674 41.0366C25.0773 41.0366 25.3855 41.1497 25.5986 41.376C25.8193 41.6023 25.9297 41.8796 25.9297 42.208C25.9297 42.5219 25.8193 42.7919 25.5986 43.0182C25.3855 43.2444 25.0773 43.3576 24.674 43.3576C24.263 43.3576 23.951 43.2444 23.7379 43.0182C23.5324 42.7919 23.4297 42.5219 23.4297 42.208Z" fill="#C9431A"/>
<path d="M478.75 17.25L465.25 30.75" stroke="#303030" stroke-width="2" stroke-linecap="round" stroke-linejoin="round"/>
<path d="M478.75 30.75L465.25 17.25" stroke="#303030" stroke-width="2" stroke-linecap="round" stroke-linejoin="round"/>
<path d="M75.0508 19.2129L71.1836 31H68.0684L73.3516 16.7812H75.334L75.0508 19.2129ZM78.2637 31L74.3867 19.2129L74.0742 16.7812H76.0762L81.3887 31H78.2637ZM78.0879 25.707V28.002H70.5781V25.707H78.0879ZM85.5 16V31H82.6777V16H85.5ZM92.6875 31.1953C91.8672 31.1953 91.1315 31.0651 90.4805 30.8047C89.8294 30.5378 89.276 30.1699 88.8203 29.7012C88.3711 29.2324 88.026 28.6888 87.7852 28.0703C87.5443 27.4453 87.4238 26.7812 87.4238 26.0781V25.6875C87.4238 24.8867 87.5378 24.1543 87.7656 23.4902C87.9935 22.8262 88.319 22.25 88.7422 21.7617C89.1719 21.2734 89.6927 20.8991 90.3047 20.6387C90.9167 20.3717 91.6068 20.2383 92.375 20.2383C93.1237 20.2383 93.7878 20.362 94.3672 20.6094C94.9466 20.8568 95.4316 21.2083 95.8223 21.6641C96.2194 22.1198 96.5189 22.6667 96.7207 23.3047C96.9225 23.9362 97.0234 24.6393 97.0234 25.4141V26.5859H88.625V24.7109H94.2598V24.4961C94.2598 24.1055 94.1882 23.7572 94.0449 23.4512C93.9082 23.1387 93.6999 22.8913 93.4199 22.709C93.14 22.5267 92.7819 22.4355 92.3457 22.4355C91.9746 22.4355 91.6556 22.5169 91.3887 22.6797C91.1217 22.8424 90.9036 23.0703 90.7344 23.3633C90.5716 23.6562 90.4479 24.0013 90.3633 24.3984C90.2852 24.7891 90.2461 25.2188 90.2461 25.6875V26.0781C90.2461 26.5013 90.3047 26.8919 90.4219 27.25C90.5456 27.6081 90.7181 27.9173 90.9395 28.1777C91.1673 28.4382 91.4408 28.64 91.7598 28.7832C92.0853 28.9264 92.4531 28.998 92.8633 28.998C93.3711 28.998 93.8431 28.9004 94.2793 28.7051C94.722 28.5033 95.1029 28.2005 95.4219 27.7969L96.7891 29.2812C96.5677 29.6003 96.265 29.9062 95.8809 30.1992C95.5033 30.4922 95.0475 30.7331 94.5137 30.9219C93.9798 31.1042 93.3711 31.1953 92.6875 31.1953ZM101.438 22.7383V31H98.625V20.4336H101.271L101.438 22.7383ZM104.621 20.3652L104.572 22.9727C104.436 22.9531 104.27 22.9368 104.074 22.9238C103.885 22.9043 103.713 22.8945 103.557 22.8945C103.16 22.8945 102.814 22.9466 102.521 23.0508C102.235 23.1484 101.994 23.2949 101.799 23.4902C101.61 23.6855 101.467 23.9232 101.369 24.2031C101.278 24.4831 101.226 24.8021 101.213 25.1602L100.646 24.9844C100.646 24.3008 100.715 23.6725 100.852 23.0996C100.988 22.5202 101.187 22.0156 101.447 21.5859C101.714 21.1562 102.04 20.8242 102.424 20.5898C102.808 20.3555 103.247 20.2383 103.742 20.2383C103.898 20.2383 104.058 20.2513 104.221 20.2773C104.383 20.2969 104.517 20.3262 104.621 20.3652ZM111.613 20.4336V22.4258H105.461V20.4336H111.613ZM106.984 17.8262H109.797V27.8164C109.797 28.1224 109.836 28.3568 109.914 28.5195C109.999 28.6823 110.122 28.7962 110.285 28.8613C110.448 28.9199 110.653 28.9492 110.9 28.9492C111.076 28.9492 111.232 28.9427 111.369 28.9297C111.512 28.9102 111.633 28.8906 111.73 28.8711L111.74 30.9414C111.499 31.0195 111.239 31.0814 110.959 31.127C110.679 31.1725 110.37 31.1953 110.031 31.1953C109.413 31.1953 108.872 31.0944 108.41 30.8926C107.954 30.6842 107.603 30.3522 107.355 29.8965C107.108 29.4408 106.984 28.8418 106.984 28.0996V17.8262ZM116.389 16.7812L116.066 26.6543H113.723L113.391 16.7812H116.389ZM113.312 29.7109C113.312 29.2943 113.456 28.9492 113.742 28.6758C114.035 28.3958 114.419 28.2559 114.895 28.2559C115.376 28.2559 115.76 28.3958 116.047 28.6758C116.333 28.9492 116.477 29.2943 116.477 29.7109C116.477 30.1146 116.333 30.4564 116.047 30.7363C115.76 31.0163 115.376 31.1562 114.895 31.1562C114.419 31.1562 114.035 31.0163 113.742 30.7363C113.456 30.4564 113.312 30.1146 113.312 29.7109Z" fill="#3C3A3A"/>
<path d="M73.4766 51.7578H70.5156V50.2031H73.4766C73.9922 50.2031 74.4089 50.1198 74.7266 49.9531C75.0443 49.7865 75.276 49.5573 75.4219 49.2656C75.5729 48.9688 75.6484 48.6302 75.6484 48.25C75.6484 47.8906 75.5729 47.5547 75.4219 47.2422C75.276 46.9245 75.0443 46.6693 74.7266 46.4766C74.4089 46.2839 73.9922 46.1875 73.4766 46.1875H71.1172V56H69.1562V44.625H73.4766C74.3568 44.625 75.1042 44.7812 75.7188 45.0938C76.3385 45.401 76.8099 45.8281 77.1328 46.375C77.4557 46.9167 77.6172 47.5365 77.6172 48.2344C77.6172 48.9688 77.4557 49.599 77.1328 50.125C76.8099 50.651 76.3385 51.0547 75.7188 51.3359C75.1042 51.6172 74.3568 51.7578 73.4766 51.7578ZM81.2031 44V56H79.3125V44H81.2031ZM86.9922 56.1562C86.3672 56.1562 85.8021 56.0547 85.2969 55.8516C84.7969 55.6432 84.3698 55.3542 84.0156 54.9844C83.6667 54.6146 83.3984 54.1797 83.2109 53.6797C83.0234 53.1797 82.9297 52.6406 82.9297 52.0625V51.75C82.9297 51.0885 83.026 50.4896 83.2188 49.9531C83.4115 49.4167 83.6797 48.9583 84.0234 48.5781C84.3672 48.1927 84.7734 47.8984 85.2422 47.6953C85.7109 47.4922 86.2188 47.3906 86.7656 47.3906C87.3698 47.3906 87.8984 47.4922 88.3516 47.6953C88.8047 47.8984 89.1797 48.1849 89.4766 48.5547C89.7786 48.9193 90.0026 49.3542 90.1484 49.8594C90.2995 50.3646 90.375 50.9219 90.375 51.5312V52.3359H83.8438V50.9844H88.5156V50.8359C88.5052 50.4974 88.4375 50.1797 88.3125 49.8828C88.1927 49.5859 88.0078 49.3464 87.7578 49.1641C87.5078 48.9818 87.1745 48.8906 86.7578 48.8906C86.4453 48.8906 86.1667 48.9583 85.9219 49.0938C85.6823 49.224 85.4818 49.4141 85.3203 49.6641C85.1589 49.9141 85.0339 50.2161 84.9453 50.5703C84.862 50.9193 84.8203 51.3125 84.8203 51.75V52.0625C84.8203 52.4323 84.8698 52.776 84.9688 53.0938C85.0729 53.4062 85.224 53.6797 85.4219 53.9141C85.6198 54.1484 85.8594 54.3333 86.1406 54.4688C86.4219 54.599 86.7422 54.6641 87.1016 54.6641C87.5547 54.6641 87.9583 54.5729 88.3125 54.3906C88.6667 54.2083 88.974 53.9505 89.2344 53.6172L90.2266 54.5781C90.0443 54.8438 89.8073 55.099 89.5156 55.3438C89.224 55.5833 88.8672 55.7786 88.4453 55.9297C88.0286 56.0807 87.5443 56.1562 86.9922 56.1562ZM96.6094 54.3047V50.2734C96.6094 49.9714 96.5547 49.7109 96.4453 49.4922C96.3359 49.2734 96.1693 49.1042 95.9453 48.9844C95.7266 48.8646 95.4505 48.8047 95.1172 48.8047C94.8099 48.8047 94.5443 48.8568 94.3203 48.9609C94.0964 49.0651 93.9219 49.2057 93.7969 49.3828C93.6719 49.5599 93.6094 49.7604 93.6094 49.9844H91.7344C91.7344 49.651 91.8151 49.3281 91.9766 49.0156C92.138 48.7031 92.3724 48.4245 92.6797 48.1797C92.987 47.9349 93.3542 47.7422 93.7812 47.6016C94.2083 47.4609 94.6875 47.3906 95.2188 47.3906C95.8542 47.3906 96.4167 47.4974 96.9062 47.7109C97.401 47.9245 97.7891 48.2474 98.0703 48.6797C98.3568 49.1068 98.5 49.6432 98.5 50.2891V54.0469C98.5 54.4323 98.526 54.7786 98.5781 55.0859C98.6354 55.388 98.7161 55.651 98.8203 55.875V56H96.8906C96.8021 55.7969 96.7318 55.5391 96.6797 55.2266C96.6328 54.9089 96.6094 54.6016 96.6094 54.3047ZM96.8828 50.8594L96.8984 52.0234H95.5469C95.1979 52.0234 94.8906 52.0573 94.625 52.125C94.3594 52.1875 94.138 52.2812 93.9609 52.4062C93.7839 52.5312 93.651 52.6823 93.5625 52.8594C93.474 53.0365 93.4297 53.237 93.4297 53.4609C93.4297 53.6849 93.4818 53.8906 93.5859 54.0781C93.6901 54.2604 93.8411 54.4036 94.0391 54.5078C94.2422 54.612 94.487 54.6641 94.7734 54.6641C95.1589 54.6641 95.4948 54.5859 95.7812 54.4297C96.0729 54.2682 96.3021 54.0729 96.4688 53.8438C96.6354 53.6094 96.724 53.388 96.7344 53.1797L97.3438 54.0156C97.2812 54.2292 97.1745 54.4583 97.0234 54.7031C96.8724 54.9479 96.6745 55.1823 96.4297 55.4062C96.1901 55.625 95.901 55.8047 95.5625 55.9453C95.2292 56.0859 94.8438 56.1562 94.4062 56.1562C93.8542 56.1562 93.362 56.0469 92.9297 55.8281C92.4974 55.6042 92.1589 55.3047 91.9141 54.9297C91.6693 54.5495 91.5469 54.1198 91.5469 53.6406C91.5469 53.1927 91.6302 52.7969 91.7969 52.4531C91.9688 52.1042 92.2188 51.8125 92.5469 51.5781C92.8802 51.3438 93.2865 51.1667 93.7656 51.0469C94.2448 50.9219 94.7917 50.8594 95.4062 50.8594H96.8828ZM105.211 53.7109C105.211 53.5234 105.164 53.3542 105.07 53.2031C104.977 53.0469 104.797 52.9062 104.531 52.7812C104.271 52.6562 103.885 52.5417 103.375 52.4375C102.927 52.3385 102.516 52.2214 102.141 52.0859C101.771 51.9453 101.453 51.776 101.188 51.5781C100.922 51.3802 100.716 51.1458 100.57 50.875C100.424 50.6042 100.352 50.2917 100.352 49.9375C100.352 49.5938 100.427 49.2682 100.578 48.9609C100.729 48.6536 100.945 48.3828 101.227 48.1484C101.508 47.9141 101.849 47.7292 102.25 47.5938C102.656 47.4583 103.109 47.3906 103.609 47.3906C104.318 47.3906 104.924 47.5104 105.43 47.75C105.94 47.9844 106.331 48.3047 106.602 48.7109C106.872 49.112 107.008 49.5651 107.008 50.0703H105.125C105.125 49.8464 105.068 49.638 104.953 49.4453C104.844 49.2474 104.677 49.0885 104.453 48.9688C104.229 48.8438 103.948 48.7812 103.609 48.7812C103.286 48.7812 103.018 48.8333 102.805 48.9375C102.596 49.0365 102.44 49.1667 102.336 49.3281C102.237 49.4896 102.188 49.6667 102.188 49.8594C102.188 50 102.214 50.1276 102.266 50.2422C102.323 50.3516 102.417 50.4531 102.547 50.5469C102.677 50.6354 102.854 50.7188 103.078 50.7969C103.307 50.875 103.594 50.9505 103.938 51.0234C104.583 51.1589 105.138 51.3333 105.602 51.5469C106.07 51.7552 106.43 52.026 106.68 52.3594C106.93 52.6875 107.055 53.1042 107.055 53.6094C107.055 53.9844 106.974 54.3281 106.812 54.6406C106.656 54.9479 106.427 55.2161 106.125 55.4453C105.823 55.6693 105.461 55.8438 105.039 55.9688C104.622 56.0938 104.154 56.1562 103.633 56.1562C102.867 56.1562 102.219 56.0208 101.688 55.75C101.156 55.474 100.753 55.1224 100.477 54.6953C100.206 54.263 100.07 53.8151 100.07 53.3516H101.891C101.911 53.7005 102.008 53.9792 102.18 54.1875C102.357 54.3906 102.576 54.5391 102.836 54.6328C103.102 54.7214 103.375 54.7656 103.656 54.7656C103.995 54.7656 104.279 54.7214 104.508 54.6328C104.737 54.5391 104.911 54.4141 105.031 54.2578C105.151 54.0964 105.211 53.9141 105.211 53.7109ZM112.43 56.1562C111.805 56.1562 111.24 56.0547 110.734 55.8516C110.234 55.6432 109.807 55.3542 109.453 54.9844C109.104 54.6146 108.836 54.1797 108.648 53.6797C108.461 53.1797 108.367 52.6406 108.367 52.0625V51.75C108.367 51.0885 108.464 50.4896 108.656 49.9531C108.849 49.4167 109.117 48.9583 109.461 48.5781C109.805 48.1927 110.211 47.8984 110.68 47.6953C111.148 47.4922 111.656 47.3906 112.203 47.3906C112.807 47.3906 113.336 47.4922 113.789 47.6953C114.242 47.8984 114.617 48.1849 114.914 48.5547C115.216 48.9193 115.44 49.3542 115.586 49.8594C115.737 50.3646 115.812 50.9219 115.812 51.5312V52.3359H109.281V50.9844H113.953V50.8359C113.943 50.4974 113.875 50.1797 113.75 49.8828C113.63 49.5859 113.445 49.3464 113.195 49.1641C112.945 48.9818 112.612 48.8906 112.195 48.8906C111.883 48.8906 111.604 48.9583 111.359 49.0938C111.12 49.224 110.919 49.4141 110.758 49.6641C110.596 49.9141 110.471 50.2161 110.383 50.5703C110.299 50.9193 110.258 51.3125 110.258 51.75V52.0625C110.258 52.4323 110.307 52.776 110.406 53.0938C110.51 53.4062 110.661 53.6797 110.859 53.9141C111.057 54.1484 111.297 54.3333 111.578 54.4688C111.859 54.599 112.18 54.6641 112.539 54.6641C112.992 54.6641 113.396 54.5729 113.75 54.3906C114.104 54.2083 114.411 53.9505 114.672 53.6172L115.664 54.5781C115.482 54.8438 115.245 55.099 114.953 55.3438C114.661 55.5833 114.305 55.7786 113.883 55.9297C113.466 56.0807 112.982 56.1562 112.43 56.1562ZM124.719 54.6562C125.026 54.6562 125.302 54.5964 125.547 54.4766C125.797 54.3516 125.997 54.1797 126.148 53.9609C126.305 53.7422 126.391 53.4896 126.406 53.2031H128.18C128.169 53.75 128.008 54.2474 127.695 54.6953C127.383 55.1432 126.969 55.5 126.453 55.7656C125.938 56.026 125.367 56.1562 124.742 56.1562C124.096 56.1562 123.534 56.0469 123.055 55.8281C122.576 55.6042 122.177 55.2969 121.859 54.9062C121.542 54.5156 121.302 54.0651 121.141 53.5547C120.984 53.0443 120.906 52.4974 120.906 51.9141V51.6406C120.906 51.0573 120.984 50.5104 121.141 50C121.302 49.4844 121.542 49.0312 121.859 48.6406C122.177 48.25 122.576 47.9453 123.055 47.7266C123.534 47.5026 124.094 47.3906 124.734 47.3906C125.411 47.3906 126.005 47.526 126.516 47.7969C127.026 48.0625 127.427 48.4349 127.719 48.9141C128.016 49.388 128.169 49.9401 128.18 50.5703H126.406C126.391 50.2578 126.312 49.9766 126.172 49.7266C126.036 49.4714 125.844 49.2682 125.594 49.1172C125.349 48.9661 125.055 48.8906 124.711 48.8906C124.331 48.8906 124.016 48.9688 123.766 49.125C123.516 49.276 123.32 49.4844 123.18 49.75C123.039 50.0104 122.938 50.3047 122.875 50.6328C122.818 50.9557 122.789 51.2917 122.789 51.6406V51.9141C122.789 52.263 122.818 52.6016 122.875 52.9297C122.932 53.2578 123.031 53.5521 123.172 53.8125C123.318 54.0677 123.516 54.2734 123.766 54.4297C124.016 54.5807 124.333 54.6562 124.719 54.6562ZM131.484 44V56H129.609V44H131.484ZM131.156 51.4609L130.547 51.4531C130.552 50.8698 130.633 50.3307 130.789 49.8359C130.951 49.3411 131.174 48.9115 131.461 48.5469C131.753 48.1771 132.102 47.8932 132.508 47.6953C132.914 47.4922 133.365 47.3906 133.859 47.3906C134.276 47.3906 134.651 47.4479 134.984 47.5625C135.323 47.6771 135.615 47.862 135.859 48.1172C136.104 48.3672 136.289 48.6953 136.414 49.1016C136.544 49.5026 136.609 49.9922 136.609 50.5703V56H134.719V50.5547C134.719 50.1484 134.659 49.8255 134.539 49.5859C134.424 49.3464 134.255 49.1745 134.031 49.0703C133.807 48.9609 133.534 48.9062 133.211 48.9062C132.872 48.9062 132.573 48.974 132.312 49.1094C132.057 49.2448 131.844 49.4297 131.672 49.6641C131.5 49.8984 131.37 50.1693 131.281 50.4766C131.198 50.7839 131.156 51.112 131.156 51.4609ZM142.242 56.1562C141.617 56.1562 141.052 56.0547 140.547 55.8516C140.047 55.6432 139.62 55.3542 139.266 54.9844C138.917 54.6146 138.648 54.1797 138.461 53.6797C138.273 53.1797 138.18 52.6406 138.18 52.0625V51.75C138.18 51.0885 138.276 50.4896 138.469 49.9531C138.661 49.4167 138.93 48.9583 139.273 48.5781C139.617 48.1927 140.023 47.8984 140.492 47.6953C140.961 47.4922 141.469 47.3906 142.016 47.3906C142.62 47.3906 143.148 47.4922 143.602 47.6953C144.055 47.8984 144.43 48.1849 144.727 48.5547C145.029 48.9193 145.253 49.3542 145.398 49.8594C145.549 50.3646 145.625 50.9219 145.625 51.5312V52.3359H139.094V50.9844H143.766V50.8359C143.755 50.4974 143.688 50.1797 143.562 49.8828C143.443 49.5859 143.258 49.3464 143.008 49.1641C142.758 48.9818 142.424 48.8906 142.008 48.8906C141.695 48.8906 141.417 48.9583 141.172 49.0938C140.932 49.224 140.732 49.4141 140.57 49.6641C140.409 49.9141 140.284 50.2161 140.195 50.5703C140.112 50.9193 140.07 51.3125 140.07 51.75V52.0625C140.07 52.4323 140.12 52.776 140.219 53.0938C140.323 53.4062 140.474 53.6797 140.672 53.9141C140.87 54.1484 141.109 54.3333 141.391 54.4688C141.672 54.599 141.992 54.6641 142.352 54.6641C142.805 54.6641 143.208 54.5729 143.562 54.3906C143.917 54.2083 144.224 53.9505 144.484 53.6172L145.477 54.5781C145.294 54.8438 145.057 55.099 144.766 55.3438C144.474 55.5833 144.117 55.7786 143.695 55.9297C143.279 56.0807 142.794 56.1562 142.242 56.1562ZM150.547 54.6562C150.854 54.6562 151.13 54.5964 151.375 54.4766C151.625 54.3516 151.826 54.1797 151.977 53.9609C152.133 53.7422 152.219 53.4896 152.234 53.2031H154.008C153.997 53.75 153.836 54.2474 153.523 54.6953C153.211 55.1432 152.797 55.5 152.281 55.7656C151.766 56.026 151.195 56.1562 150.57 56.1562C149.924 56.1562 149.362 56.0469 148.883 55.8281C148.404 55.6042 148.005 55.2969 147.688 54.9062C147.37 54.5156 147.13 54.0651 146.969 53.5547C146.812 53.0443 146.734 52.4974 146.734 51.9141V51.6406C146.734 51.0573 146.812 50.5104 146.969 50C147.13 49.4844 147.37 49.0312 147.688 48.6406C148.005 48.25 148.404 47.9453 148.883 47.7266C149.362 47.5026 149.922 47.3906 150.562 47.3906C151.24 47.3906 151.833 47.526 152.344 47.7969C152.854 48.0625 153.255 48.4349 153.547 48.9141C153.844 49.388 153.997 49.9401 154.008 50.5703H152.234C152.219 50.2578 152.141 49.9766 152 49.7266C151.865 49.4714 151.672 49.2682 151.422 49.1172C151.177 48.9661 150.883 48.8906 150.539 48.8906C150.159 48.8906 149.844 48.9688 149.594 49.125C149.344 49.276 149.148 49.4844 149.008 49.75C148.867 50.0104 148.766 50.3047 148.703 50.6328C148.646 50.9557 148.617 51.2917 148.617 51.6406V51.9141C148.617 52.263 148.646 52.6016 148.703 52.9297C148.76 53.2578 148.859 53.5521 149 53.8125C149.146 54.0677 149.344 54.2734 149.594 54.4297C149.844 54.5807 150.161 54.6562 150.547 54.6562ZM157.352 44V56H155.461V44H157.352ZM162.602 47.5469L158.922 51.625L156.906 53.6875L156.414 52.0938L157.938 50.2109L160.328 47.5469H162.602ZM160.734 56L157.992 52.0312L159.18 50.7109L162.914 56H160.734ZM170.234 55.0781L172.531 47.5469H174.547L171.156 57.2891C171.078 57.4974 170.977 57.724 170.852 57.9688C170.727 58.2135 170.562 58.4453 170.359 58.6641C170.161 58.888 169.914 59.0677 169.617 59.2031C169.32 59.3438 168.961 59.4141 168.539 59.4141C168.372 59.4141 168.211 59.3984 168.055 59.3672C167.904 59.3411 167.76 59.3125 167.625 59.2812L167.617 57.8438C167.669 57.849 167.732 57.8542 167.805 57.8594C167.883 57.8646 167.945 57.8672 167.992 57.8672C168.305 57.8672 168.565 57.8281 168.773 57.75C168.982 57.6771 169.151 57.5573 169.281 57.3906C169.417 57.224 169.531 57 169.625 56.7188L170.234 55.0781ZM168.938 47.5469L170.945 53.875L171.281 55.8594L169.977 56.1953L166.906 47.5469H168.938ZM175.141 51.8672V51.6875C175.141 51.0781 175.229 50.513 175.406 49.9922C175.583 49.4661 175.839 49.0104 176.172 48.625C176.51 48.2344 176.922 47.9323 177.406 47.7188C177.896 47.5 178.448 47.3906 179.062 47.3906C179.682 47.3906 180.234 47.5 180.719 47.7188C181.208 47.9323 181.622 48.2344 181.961 48.625C182.299 49.0104 182.557 49.4661 182.734 49.9922C182.911 50.513 183 51.0781 183 51.6875V51.8672C183 52.4766 182.911 53.0417 182.734 53.5625C182.557 54.0833 182.299 54.5391 181.961 54.9297C181.622 55.3151 181.211 55.6172 180.727 55.8359C180.242 56.0495 179.693 56.1562 179.078 56.1562C178.458 56.1562 177.904 56.0495 177.414 55.8359C176.93 55.6172 176.518 55.3151 176.18 54.9297C175.841 54.5391 175.583 54.0833 175.406 53.5625C175.229 53.0417 175.141 52.4766 175.141 51.8672ZM177.023 51.6875V51.8672C177.023 52.2474 177.062 52.6068 177.141 52.9453C177.219 53.2839 177.341 53.5807 177.508 53.8359C177.674 54.0911 177.888 54.2917 178.148 54.4375C178.409 54.5833 178.719 54.6562 179.078 54.6562C179.427 54.6562 179.729 54.5833 179.984 54.4375C180.245 54.2917 180.458 54.0911 180.625 53.8359C180.792 53.5807 180.914 53.2839 180.992 52.9453C181.076 52.6068 181.117 52.2474 181.117 51.8672V51.6875C181.117 51.3125 181.076 50.9583 180.992 50.625C180.914 50.2865 180.789 49.987 180.617 49.7266C180.451 49.4661 180.237 49.263 179.977 49.1172C179.721 48.9661 179.417 48.8906 179.062 48.8906C178.708 48.8906 178.401 48.9661 178.141 49.1172C177.885 49.263 177.674 49.4661 177.508 49.7266C177.341 49.987 177.219 50.2865 177.141 50.625C177.062 50.9583 177.023 51.3125 177.023 51.6875ZM189.664 54.0078V47.5469H191.555V56H189.773L189.664 54.0078ZM189.93 52.25L190.562 52.2344C190.562 52.8021 190.5 53.3255 190.375 53.8047C190.25 54.2786 190.057 54.6927 189.797 55.0469C189.536 55.3958 189.203 55.6693 188.797 55.8672C188.391 56.0599 187.904 56.1562 187.336 56.1562C186.924 56.1562 186.547 56.0964 186.203 55.9766C185.859 55.8568 185.562 55.6719 185.312 55.4219C185.068 55.1719 184.878 54.8464 184.742 54.4453C184.607 54.0443 184.539 53.5651 184.539 53.0078V47.5469H186.422V53.0234C186.422 53.3307 186.458 53.5885 186.531 53.7969C186.604 54 186.703 54.1641 186.828 54.2891C186.953 54.4141 187.099 54.5026 187.266 54.5547C187.432 54.6068 187.609 54.6328 187.797 54.6328C188.333 54.6328 188.755 54.5286 189.062 54.3203C189.375 54.1068 189.596 53.8203 189.727 53.4609C189.862 53.1016 189.93 52.6979 189.93 52.25ZM195.375 49.1562V56H193.492V47.5469H195.289L195.375 49.1562ZM197.961 47.4922L197.945 49.2422C197.831 49.2214 197.706 49.2057 197.57 49.1953C197.44 49.1849 197.31 49.1797 197.18 49.1797C196.857 49.1797 196.573 49.2266 196.328 49.3203C196.083 49.4089 195.878 49.5391 195.711 49.7109C195.549 49.8776 195.424 50.0807 195.336 50.3203C195.247 50.5599 195.195 50.8281 195.18 51.125L194.75 51.1562C194.75 50.625 194.802 50.1328 194.906 49.6797C195.01 49.2266 195.167 48.8281 195.375 48.4844C195.589 48.1406 195.854 47.8724 196.172 47.6797C196.495 47.487 196.867 47.3906 197.289 47.3906C197.404 47.3906 197.526 47.401 197.656 47.4219C197.792 47.4427 197.893 47.4661 197.961 47.4922ZM206.852 56.1562C206.227 56.1562 205.661 56.0547 205.156 55.8516C204.656 55.6432 204.229 55.3542 203.875 54.9844C203.526 54.6146 203.258 54.1797 203.07 53.6797C202.883 53.1797 202.789 52.6406 202.789 52.0625V51.75C202.789 51.0885 202.885 50.4896 203.078 49.9531C203.271 49.4167 203.539 48.9583 203.883 48.5781C204.227 48.1927 204.633 47.8984 205.102 47.6953C205.57 47.4922 206.078 47.3906 206.625 47.3906C207.229 47.3906 207.758 47.4922 208.211 47.6953C208.664 47.8984 209.039 48.1849 209.336 48.5547C209.638 48.9193 209.862 49.3542 210.008 49.8594C210.159 50.3646 210.234 50.9219 210.234 51.5312V52.3359H203.703V50.9844H208.375V50.8359C208.365 50.4974 208.297 50.1797 208.172 49.8828C208.052 49.5859 207.867 49.3464 207.617 49.1641C207.367 48.9818 207.034 48.8906 206.617 48.8906C206.305 48.8906 206.026 48.9583 205.781 49.0938C205.542 49.224 205.341 49.4141 205.18 49.6641C205.018 49.9141 204.893 50.2161 204.805 50.5703C204.721 50.9193 204.68 51.3125 204.68 51.75V52.0625C204.68 52.4323 204.729 52.776 204.828 53.0938C204.932 53.4062 205.083 53.6797 205.281 53.9141C205.479 54.1484 205.719 54.3333 206 54.4688C206.281 54.599 206.602 54.6641 206.961 54.6641C207.414 54.6641 207.818 54.5729 208.172 54.3906C208.526 54.2083 208.833 53.9505 209.094 53.6172L210.086 54.5781C209.904 54.8438 209.667 55.099 209.375 55.3438C209.083 55.5833 208.727 55.7786 208.305 55.9297C207.888 56.0807 207.404 56.1562 206.852 56.1562ZM213.586 49.2656V56H211.703V47.5469H213.477L213.586 49.2656ZM213.281 51.4609L212.641 51.4531C212.641 50.8698 212.714 50.3307 212.859 49.8359C213.005 49.3411 213.219 48.9115 213.5 48.5469C213.781 48.1771 214.13 47.8932 214.547 47.6953C214.969 47.4922 215.456 47.3906 216.008 47.3906C216.393 47.3906 216.745 47.4479 217.062 47.5625C217.385 47.6719 217.664 47.8464 217.898 48.0859C218.138 48.3255 218.32 48.6328 218.445 49.0078C218.576 49.3828 218.641 49.8359 218.641 50.3672V56H216.758V50.5312C216.758 50.1198 216.695 49.7969 216.57 49.5625C216.451 49.3281 216.276 49.1615 216.047 49.0625C215.823 48.9583 215.555 48.9062 215.242 48.9062C214.888 48.9062 214.586 48.974 214.336 49.1094C214.091 49.2448 213.891 49.4297 213.734 49.6641C213.578 49.8984 213.464 50.1693 213.391 50.4766C213.318 50.7839 213.281 51.112 213.281 51.4609ZM218.523 50.9609L217.641 51.1562C217.641 50.6458 217.711 50.1641 217.852 49.7109C217.997 49.2526 218.208 48.8516 218.484 48.5078C218.766 48.1589 219.112 47.8854 219.523 47.6875C219.935 47.4896 220.406 47.3906 220.938 47.3906C221.37 47.3906 221.755 47.4505 222.094 47.5703C222.438 47.6849 222.729 47.8672 222.969 48.1172C223.208 48.3672 223.391 48.6927 223.516 49.0938C223.641 49.4896 223.703 49.9688 223.703 50.5312V56H221.812V50.5234C221.812 50.0964 221.75 49.7656 221.625 49.5312C221.505 49.2969 221.333 49.1354 221.109 49.0469C220.885 48.9531 220.617 48.9062 220.305 48.9062C220.013 48.9062 219.755 48.9609 219.531 49.0703C219.312 49.1745 219.128 49.3229 218.977 49.5156C218.826 49.7031 218.711 49.9193 218.633 50.1641C218.56 50.4089 218.523 50.6745 218.523 50.9609ZM230.406 54.3047V50.2734C230.406 49.9714 230.352 49.7109 230.242 49.4922C230.133 49.2734 229.966 49.1042 229.742 48.9844C229.523 48.8646 229.247 48.8047 228.914 48.8047C228.607 48.8047 228.341 48.8568 228.117 48.9609C227.893 49.0651 227.719 49.2057 227.594 49.3828C227.469 49.5599 227.406 49.7604 227.406 49.9844H225.531C225.531 49.651 225.612 49.3281 225.773 49.0156C225.935 48.7031 226.169 48.4245 226.477 48.1797C226.784 47.9349 227.151 47.7422 227.578 47.6016C228.005 47.4609 228.484 47.3906 229.016 47.3906C229.651 47.3906 230.214 47.4974 230.703 47.7109C231.198 47.9245 231.586 48.2474 231.867 48.6797C232.154 49.1068 232.297 49.6432 232.297 50.2891V54.0469C232.297 54.4323 232.323 54.7786 232.375 55.0859C232.432 55.388 232.513 55.651 232.617 55.875V56H230.688C230.599 55.7969 230.529 55.5391 230.477 55.2266C230.43 54.9089 230.406 54.6016 230.406 54.3047ZM230.68 50.8594L230.695 52.0234H229.344C228.995 52.0234 228.688 52.0573 228.422 52.125C228.156 52.1875 227.935 52.2812 227.758 52.4062C227.581 52.5312 227.448 52.6823 227.359 52.8594C227.271 53.0365 227.227 53.237 227.227 53.4609C227.227 53.6849 227.279 53.8906 227.383 54.0781C227.487 54.2604 227.638 54.4036 227.836 54.5078C228.039 54.612 228.284 54.6641 228.57 54.6641C228.956 54.6641 229.292 54.5859 229.578 54.4297C229.87 54.2682 230.099 54.0729 230.266 53.8438C230.432 53.6094 230.521 53.388 230.531 53.1797L231.141 54.0156C231.078 54.2292 230.971 54.4583 230.82 54.7031C230.669 54.9479 230.471 55.1823 230.227 55.4062C229.987 55.625 229.698 55.8047 229.359 55.9453C229.026 56.0859 228.641 56.1562 228.203 56.1562C227.651 56.1562 227.159 56.0469 226.727 55.8281C226.294 55.6042 225.956 55.3047 225.711 54.9297C225.466 54.5495 225.344 54.1198 225.344 53.6406C225.344 53.1927 225.427 52.7969 225.594 52.4531C225.766 52.1042 226.016 51.8125 226.344 51.5781C226.677 51.3438 227.083 51.1667 227.562 51.0469C228.042 50.9219 228.589 50.8594 229.203 50.8594H230.68ZM236.281 47.5469V56H234.391V47.5469H236.281ZM234.266 45.3281C234.266 45.0417 234.359 44.8047 234.547 44.6172C234.74 44.4245 235.005 44.3281 235.344 44.3281C235.677 44.3281 235.94 44.4245 236.133 44.6172C236.326 44.8047 236.422 45.0417 236.422 45.3281C236.422 45.6094 236.326 45.8438 236.133 46.0312C235.94 46.2188 235.677 46.3125 235.344 46.3125C235.005 46.3125 234.74 46.2188 234.547 46.0312C234.359 45.8438 234.266 45.6094 234.266 45.3281ZM240.359 44V56H238.469V44H240.359ZM246.047 51.8672V51.6875C246.047 51.0781 246.135 50.513 246.312 49.9922C246.49 49.4661 246.745 49.0104 247.078 48.625C247.417 48.2344 247.828 47.9323 248.312 47.7188C248.802 47.5 249.354 47.3906 249.969 47.3906C250.589 47.3906 251.141 47.5 251.625 47.7188C252.115 47.9323 252.529 48.2344 252.867 48.625C253.206 49.0104 253.464 49.4661 253.641 49.9922C253.818 50.513 253.906 51.0781 253.906 51.6875V51.8672C253.906 52.4766 253.818 53.0417 253.641 53.5625C253.464 54.0833 253.206 54.5391 252.867 54.9297C252.529 55.3151 252.117 55.6172 251.633 55.8359C251.148 56.0495 250.599 56.1562 249.984 56.1562C249.365 56.1562 248.81 56.0495 248.32 55.8359C247.836 55.6172 247.424 55.3151 247.086 54.9297C246.747 54.5391 246.49 54.0833 246.312 53.5625C246.135 53.0417 246.047 52.4766 246.047 51.8672ZM247.93 51.6875V51.8672C247.93 52.2474 247.969 52.6068 248.047 52.9453C248.125 53.2839 248.247 53.5807 248.414 53.8359C248.581 54.0911 248.794 54.2917 249.055 54.4375C249.315 54.5833 249.625 54.6562 249.984 54.6562C250.333 54.6562 250.635 54.5833 250.891 54.4375C251.151 54.2917 251.365 54.0911 251.531 53.8359C251.698 53.5807 251.82 53.2839 251.898 52.9453C251.982 52.6068 252.023 52.2474 252.023 51.8672V51.6875C252.023 51.3125 251.982 50.9583 251.898 50.625C251.82 50.2865 251.695 49.987 251.523 49.7266C251.357 49.4661 251.143 49.263 250.883 49.1172C250.628 48.9661 250.323 48.8906 249.969 48.8906C249.615 48.8906 249.307 48.9661 249.047 49.1172C248.792 49.263 248.581 49.4661 248.414 49.7266C248.247 49.987 248.125 50.2865 248.047 50.625C247.969 50.9583 247.93 51.3125 247.93 51.6875ZM257.375 49.1562V56H255.492V47.5469H257.289L257.375 49.1562ZM259.961 47.4922L259.945 49.2422C259.831 49.2214 259.706 49.2057 259.57 49.1953C259.44 49.1849 259.31 49.1797 259.18 49.1797C258.857 49.1797 258.573 49.2266 258.328 49.3203C258.083 49.4089 257.878 49.5391 257.711 49.7109C257.549 49.8776 257.424 50.0807 257.336 50.3203C257.247 50.5599 257.195 50.8281 257.18 51.125L256.75 51.1562C256.75 50.625 256.802 50.1328 256.906 49.6797C257.01 49.2266 257.167 48.8281 257.375 48.4844C257.589 48.1406 257.854 47.8724 258.172 47.6797C258.495 47.487 258.867 47.3906 259.289 47.3906C259.404 47.3906 259.526 47.401 259.656 47.4219C259.792 47.4427 259.893 47.4661 259.961 47.4922ZM267.016 49.1719V59.25H265.133V47.5469H266.867L267.016 49.1719ZM272.523 51.6953V51.8594C272.523 52.474 272.451 53.0443 272.305 53.5703C272.164 54.0911 271.953 54.5469 271.672 54.9375C271.396 55.3229 271.055 55.6224 270.648 55.8359C270.242 56.0495 269.773 56.1562 269.242 56.1562C268.716 56.1562 268.255 56.0599 267.859 55.8672C267.469 55.6693 267.138 55.3906 266.867 55.0312C266.596 54.6719 266.378 54.25 266.211 53.7656C266.049 53.276 265.935 52.7396 265.867 52.1562V51.5234C265.935 50.9036 266.049 50.3411 266.211 49.8359C266.378 49.3307 266.596 48.8958 266.867 48.5312C267.138 48.1667 267.469 47.8854 267.859 47.6875C268.25 47.4896 268.706 47.3906 269.227 47.3906C269.758 47.3906 270.229 47.4948 270.641 47.7031C271.052 47.9062 271.398 48.1979 271.68 48.5781C271.961 48.9531 272.172 49.4062 272.312 49.9375C272.453 50.4635 272.523 51.0495 272.523 51.6953ZM270.641 51.8594V51.6953C270.641 51.3047 270.604 50.9427 270.531 50.6094C270.458 50.2708 270.344 49.974 270.188 49.7188C270.031 49.4635 269.831 49.2656 269.586 49.125C269.346 48.9792 269.057 48.9062 268.719 48.9062C268.385 48.9062 268.099 48.9635 267.859 49.0781C267.62 49.1875 267.419 49.3411 267.258 49.5391C267.096 49.737 266.971 49.9688 266.883 50.2344C266.794 50.4948 266.732 50.7786 266.695 51.0859V52.6016C266.758 52.9766 266.865 53.3203 267.016 53.6328C267.167 53.9453 267.38 54.1953 267.656 54.3828C267.938 54.5651 268.297 54.6562 268.734 54.6562C269.073 54.6562 269.362 54.5833 269.602 54.4375C269.841 54.2917 270.036 54.0911 270.188 53.8359C270.344 53.5755 270.458 53.276 270.531 52.9375C270.604 52.599 270.641 52.2396 270.641 51.8594ZM278.891 54.3047V50.2734C278.891 49.9714 278.836 49.7109 278.727 49.4922C278.617 49.2734 278.451 49.1042 278.227 48.9844C278.008 48.8646 277.732 48.8047 277.398 48.8047C277.091 48.8047 276.826 48.8568 276.602 48.9609C276.378 49.0651 276.203 49.2057 276.078 49.3828C275.953 49.5599 275.891 49.7604 275.891 49.9844H274.016C274.016 49.651 274.096 49.3281 274.258 49.0156C274.419 48.7031 274.654 48.4245 274.961 48.1797C275.268 47.9349 275.635 47.7422 276.062 47.6016C276.49 47.4609 276.969 47.3906 277.5 47.3906C278.135 47.3906 278.698 47.4974 279.188 47.7109C279.682 47.9245 280.07 48.2474 280.352 48.6797C280.638 49.1068 280.781 49.6432 280.781 50.2891V54.0469C280.781 54.4323 280.807 54.7786 280.859 55.0859C280.917 55.388 280.997 55.651 281.102 55.875V56H279.172C279.083 55.7969 279.013 55.5391 278.961 55.2266C278.914 54.9089 278.891 54.6016 278.891 54.3047ZM279.164 50.8594L279.18 52.0234H277.828C277.479 52.0234 277.172 52.0573 276.906 52.125C276.641 52.1875 276.419 52.2812 276.242 52.4062C276.065 52.5312 275.932 52.6823 275.844 52.8594C275.755 53.0365 275.711 53.237 275.711 53.4609C275.711 53.6849 275.763 53.8906 275.867 54.0781C275.971 54.2604 276.122 54.4036 276.32 54.5078C276.523 54.612 276.768 54.6641 277.055 54.6641C277.44 54.6641 277.776 54.5859 278.062 54.4297C278.354 54.2682 278.583 54.0729 278.75 53.8438C278.917 53.6094 279.005 53.388 279.016 53.1797L279.625 54.0156C279.562 54.2292 279.456 54.4583 279.305 54.7031C279.154 54.9479 278.956 55.1823 278.711 55.4062C278.471 55.625 278.182 55.8047 277.844 55.9453C277.51 56.0859 277.125 56.1562 276.688 56.1562C276.135 56.1562 275.643 56.0469 275.211 55.8281C274.779 55.6042 274.44 55.3047 274.195 54.9297C273.951 54.5495 273.828 54.1198 273.828 53.6406C273.828 53.1927 273.911 52.7969 274.078 52.4531C274.25 52.1042 274.5 51.8125 274.828 51.5781C275.161 51.3438 275.568 51.1667 276.047 51.0469C276.526 50.9219 277.073 50.8594 277.688 50.8594H279.164ZM287.492 53.7109C287.492 53.5234 287.445 53.3542 287.352 53.2031C287.258 53.0469 287.078 52.9062 286.812 52.7812C286.552 52.6562 286.167 52.5417 285.656 52.4375C285.208 52.3385 284.797 52.2214 284.422 52.0859C284.052 51.9453 283.734 51.776 283.469 51.5781C283.203 51.3802 282.997 51.1458 282.852 50.875C282.706 50.6042 282.633 50.2917 282.633 49.9375C282.633 49.5938 282.708 49.2682 282.859 48.9609C283.01 48.6536 283.227 48.3828 283.508 48.1484C283.789 47.9141 284.13 47.7292 284.531 47.5938C284.938 47.4583 285.391 47.3906 285.891 47.3906C286.599 47.3906 287.206 47.5104 287.711 47.75C288.221 47.9844 288.612 48.3047 288.883 48.7109C289.154 49.112 289.289 49.5651 289.289 50.0703H287.406C287.406 49.8464 287.349 49.638 287.234 49.4453C287.125 49.2474 286.958 49.0885 286.734 48.9688C286.51 48.8438 286.229 48.7812 285.891 48.7812C285.568 48.7812 285.299 48.8333 285.086 48.9375C284.878 49.0365 284.721 49.1667 284.617 49.3281C284.518 49.4896 284.469 49.6667 284.469 49.8594C284.469 50 284.495 50.1276 284.547 50.2422C284.604 50.3516 284.698 50.4531 284.828 50.5469C284.958 50.6354 285.135 50.7188 285.359 50.7969C285.589 50.875 285.875 50.9505 286.219 51.0234C286.865 51.1589 287.419 51.3333 287.883 51.5469C288.352 51.7552 288.711 52.026 288.961 52.3594C289.211 52.6875 289.336 53.1042 289.336 53.6094C289.336 53.9844 289.255 54.3281 289.094 54.6406C288.938 54.9479 288.708 55.2161 288.406 55.4453C288.104 55.6693 287.742 55.8438 287.32 55.9688C286.904 56.0938 286.435 56.1562 285.914 56.1562C285.148 56.1562 284.5 56.0208 283.969 55.75C283.438 55.474 283.034 55.1224 282.758 54.6953C282.487 54.263 282.352 53.8151 282.352 53.3516H284.172C284.193 53.7005 284.289 53.9792 284.461 54.1875C284.638 54.3906 284.857 54.5391 285.117 54.6328C285.383 54.7214 285.656 54.7656 285.938 54.7656C286.276 54.7656 286.56 54.7214 286.789 54.6328C287.018 54.5391 287.193 54.4141 287.312 54.2578C287.432 54.0964 287.492 53.9141 287.492 53.7109ZM295.727 53.7109C295.727 53.5234 295.68 53.3542 295.586 53.2031C295.492 53.0469 295.312 52.9062 295.047 52.7812C294.786 52.6562 294.401 52.5417 293.891 52.4375C293.443 52.3385 293.031 52.2214 292.656 52.0859C292.286 51.9453 291.969 51.776 291.703 51.5781C291.438 51.3802 291.232 51.1458 291.086 50.875C290.94 50.6042 290.867 50.2917 290.867 49.9375C290.867 49.5938 290.943 49.2682 291.094 48.9609C291.245 48.6536 291.461 48.3828 291.742 48.1484C292.023 47.9141 292.365 47.7292 292.766 47.5938C293.172 47.4583 293.625 47.3906 294.125 47.3906C294.833 47.3906 295.44 47.5104 295.945 47.75C296.456 47.9844 296.846 48.3047 297.117 48.7109C297.388 49.112 297.523 49.5651 297.523 50.0703H295.641C295.641 49.8464 295.583 49.638 295.469 49.4453C295.359 49.2474 295.193 49.0885 294.969 48.9688C294.745 48.8438 294.464 48.7812 294.125 48.7812C293.802 48.7812 293.534 48.8333 293.32 48.9375C293.112 49.0365 292.956 49.1667 292.852 49.3281C292.753 49.4896 292.703 49.6667 292.703 49.8594C292.703 50 292.729 50.1276 292.781 50.2422C292.839 50.3516 292.932 50.4531 293.062 50.5469C293.193 50.6354 293.37 50.7188 293.594 50.7969C293.823 50.875 294.109 50.9505 294.453 51.0234C295.099 51.1589 295.654 51.3333 296.117 51.5469C296.586 51.7552 296.945 52.026 297.195 52.3594C297.445 52.6875 297.57 53.1042 297.57 53.6094C297.57 53.9844 297.49 54.3281 297.328 54.6406C297.172 54.9479 296.943 55.2161 296.641 55.4453C296.339 55.6693 295.977 55.8438 295.555 55.9688C295.138 56.0938 294.669 56.1562 294.148 56.1562C293.383 56.1562 292.734 56.0208 292.203 55.75C291.672 55.474 291.268 55.1224 290.992 54.6953C290.721 54.263 290.586 53.8151 290.586 53.3516H292.406C292.427 53.7005 292.523 53.9792 292.695 54.1875C292.872 54.3906 293.091 54.5391 293.352 54.6328C293.617 54.7214 293.891 54.7656 294.172 54.7656C294.51 54.7656 294.794 54.7214 295.023 54.6328C295.253 54.5391 295.427 54.4141 295.547 54.2578C295.667 54.0964 295.727 53.9141 295.727 53.7109ZM301.516 54.125L303.469 47.5469H304.672L304.344 49.5156L302.375 56H301.297L301.516 54.125ZM300.367 47.5469L301.891 54.1562L302.016 56H300.812L298.523 47.5469H300.367ZM306.5 54.0781L307.977 47.5469H309.812L307.531 56H306.328L306.5 54.0781ZM304.875 47.5469L306.805 54.0469L307.047 56H305.969L303.977 49.5078L303.648 47.5469H304.875ZM310.734 51.8672V51.6875C310.734 51.0781 310.823 50.513 311 49.9922C311.177 49.4661 311.432 49.0104 311.766 48.625C312.104 48.2344 312.516 47.9323 313 47.7188C313.49 47.5 314.042 47.3906 314.656 47.3906C315.276 47.3906 315.828 47.5 316.312 47.7188C316.802 47.9323 317.216 48.2344 317.555 48.625C317.893 49.0104 318.151 49.4661 318.328 49.9922C318.505 50.513 318.594 51.0781 318.594 51.6875V51.8672C318.594 52.4766 318.505 53.0417 318.328 53.5625C318.151 54.0833 317.893 54.5391 317.555 54.9297C317.216 55.3151 316.805 55.6172 316.32 55.8359C315.836 56.0495 315.286 56.1562 314.672 56.1562C314.052 56.1562 313.497 56.0495 313.008 55.8359C312.523 55.6172 312.112 55.3151 311.773 54.9297C311.435 54.5391 311.177 54.0833 311 53.5625C310.823 53.0417 310.734 52.4766 310.734 51.8672ZM312.617 51.6875V51.8672C312.617 52.2474 312.656 52.6068 312.734 52.9453C312.812 53.2839 312.935 53.5807 313.102 53.8359C313.268 54.0911 313.482 54.2917 313.742 54.4375C314.003 54.5833 314.312 54.6562 314.672 54.6562C315.021 54.6562 315.323 54.5833 315.578 54.4375C315.839 54.2917 316.052 54.0911 316.219 53.8359C316.385 53.5807 316.508 53.2839 316.586 52.9453C316.669 52.6068 316.711 52.2474 316.711 51.8672V51.6875C316.711 51.3125 316.669 50.9583 316.586 50.625C316.508 50.2865 316.383 49.987 316.211 49.7266C316.044 49.4661 315.831 49.263 315.57 49.1172C315.315 48.9661 315.01 48.8906 314.656 48.8906C314.302 48.8906 313.995 48.9661 313.734 49.1172C313.479 49.263 313.268 49.4661 313.102 49.7266C312.935 49.987 312.812 50.2865 312.734 50.625C312.656 50.9583 312.617 51.3125 312.617 51.6875ZM322.062 49.1562V56H320.18V47.5469H321.977L322.062 49.1562ZM324.648 47.4922L324.633 49.2422C324.518 49.2214 324.393 49.2057 324.258 49.1953C324.128 49.1849 323.997 49.1797 323.867 49.1797C323.544 49.1797 323.26 49.2266 323.016 49.3203C322.771 49.4089 322.565 49.5391 322.398 49.7109C322.237 49.8776 322.112 50.0807 322.023 50.3203C321.935 50.5599 321.883 50.8281 321.867 51.125L321.438 51.1562C321.438 50.625 321.49 50.1328 321.594 49.6797C321.698 49.2266 321.854 48.8281 322.062 48.4844C322.276 48.1406 322.542 47.8724 322.859 47.6797C323.182 47.487 323.555 47.3906 323.977 47.3906C324.091 47.3906 324.214 47.401 324.344 47.4219C324.479 47.4427 324.581 47.4661 324.648 47.4922ZM330.828 54.25V44H332.719V56H331.008L330.828 54.25ZM325.328 51.8672V51.7031C325.328 51.0625 325.404 50.4792 325.555 49.9531C325.706 49.4219 325.924 48.9661 326.211 48.5859C326.497 48.2005 326.846 47.9062 327.258 47.7031C327.669 47.4948 328.133 47.3906 328.648 47.3906C329.159 47.3906 329.607 47.4896 329.992 47.6875C330.378 47.8854 330.706 48.1693 330.977 48.5391C331.247 48.9036 331.464 49.3411 331.625 49.8516C331.786 50.3568 331.901 50.9193 331.969 51.5391V52.0625C331.901 52.6667 331.786 53.2188 331.625 53.7188C331.464 54.2188 331.247 54.651 330.977 55.0156C330.706 55.3802 330.375 55.6615 329.984 55.8594C329.599 56.0573 329.148 56.1562 328.633 56.1562C328.122 56.1562 327.661 56.0495 327.25 55.8359C326.844 55.6224 326.497 55.3229 326.211 54.9375C325.924 54.5521 325.706 54.099 325.555 53.5781C325.404 53.0521 325.328 52.4818 325.328 51.8672ZM327.211 51.7031V51.8672C327.211 52.2526 327.245 52.612 327.312 52.9453C327.385 53.2786 327.497 53.5729 327.648 53.8281C327.799 54.0781 327.995 54.276 328.234 54.4219C328.479 54.5625 328.771 54.6328 329.109 54.6328C329.536 54.6328 329.888 54.5391 330.164 54.3516C330.44 54.1641 330.656 53.9115 330.812 53.5938C330.974 53.2708 331.083 52.9115 331.141 52.5156V51.1016C331.109 50.7943 331.044 50.5078 330.945 50.2422C330.852 49.9766 330.724 49.7448 330.562 49.5469C330.401 49.3438 330.201 49.1875 329.961 49.0781C329.727 48.9635 329.448 48.9062 329.125 48.9062C328.781 48.9062 328.49 48.9792 328.25 49.125C328.01 49.2708 327.812 49.4714 327.656 49.7266C327.505 49.9818 327.393 50.2786 327.32 50.6172C327.247 50.9557 327.211 51.3177 327.211 51.7031ZM334.766 55.0625C334.766 54.7708 334.865 54.526 335.062 54.3281C335.26 54.125 335.529 54.0234 335.867 54.0234C336.211 54.0234 336.479 54.125 336.672 54.3281C336.87 54.526 336.969 54.7708 336.969 55.0625C336.969 55.3542 336.87 55.599 336.672 55.7969C336.479 55.9948 336.211 56.0938 335.867 56.0938C335.529 56.0938 335.26 55.9948 335.062 55.7969C334.865 55.599 334.766 55.3542 334.766 55.0625Z" fill="#3C3A3A"/>
</svg>
