<svg width="120" height="120" viewBox="0 0 120 120" fill="none" xmlns="http://www.w3.org/2000/svg">
<path d="M37.5 54.6353C37.5 54.0452 37.5 53.7502 37.5311 53.5024C37.7586 51.6878 39.1878 50.2586 41.0024 50.0311C41.2502 50 41.5452 50 42.1353 50V50C42.5143 50 42.7038 50 42.8791 49.9846C44.1389 49.8735 45.272 49.1732 45.9347 48.0961C46.0269 47.9462 46.1116 47.7767 46.2812 47.4377L48.8944 42.2111C49.4323 41.1353 49.7013 40.5974 50.1846 40.2987C50.6679 40 51.2693 40 52.4721 40H67.5279C68.7307 40 69.3321 40 69.8154 40.2987C70.2987 40.5974 70.5677 41.1353 71.1056 42.2111L73.7188 47.4377C73.8884 47.7767 73.9731 47.9462 74.0653 48.0961C74.728 49.1732 75.8611 49.8735 77.1209 49.9846C77.2962 50 77.4857 50 77.8647 50V50C78.4548 50 78.7498 50 78.9976 50.0311C80.8122 50.2586 82.2414 51.6878 82.4689 53.5024C82.5 53.7502 82.5 54.0452 82.5 54.6353V74C82.5 76.8284 82.5 78.2426 81.6213 79.1213C80.7426 80 79.3284 80 76.5 80H43.5C40.6716 80 39.2574 80 38.3787 79.1213C37.5 78.2426 37.5 76.8284 37.5 74V54.6353Z" stroke="#222222" stroke-width="2"/>
<circle cx="60" cy="62.5" r="9" stroke="#222222" stroke-width="2"/>
<circle cx="60" cy="60" r="59" stroke="black" stroke-width="2"/>
</svg>
