<svg width="44" height="45" viewBox="0 0 44 45" fill="none" xmlns="http://www.w3.org/2000/svg">
<path d="M5.5 18.8893C5.5 17.012 7.02187 15.4901 8.89919 15.4901V15.4901C10.1867 15.4901 11.3637 14.7627 11.9395 13.6111L13.5611 10.368C14.099 9.29213 14.368 8.75421 14.8513 8.45551C15.3346 8.15681 15.936 8.15681 17.1388 8.15681H26.8612C28.064 8.15681 28.6654 8.15681 29.1487 8.45551C29.632 8.75421 29.901 9.29213 30.4389 10.368L32.0605 13.6111C32.6363 14.7627 33.8133 15.4901 35.1008 15.4901V15.4901C36.9781 15.4901 38.5 17.012 38.5 18.8893V31.4901C38.5 34.3186 38.5 35.7328 37.6213 36.6115C36.7426 37.4901 35.3284 37.4901 32.5 37.4901H11.5C8.67157 37.4901 7.25736 37.4901 6.37868 36.6115C5.5 35.7328 5.5 34.3186 5.5 31.4901V18.8893Z" stroke="#222222" stroke-width="2"/>
<path d="M28.3332 24.6568C28.3332 28.1546 25.4976 30.9902 21.9998 30.9902C18.502 30.9902 15.6665 28.1546 15.6665 24.6568C15.6665 21.159 18.502 18.3235 21.9998 18.3235C25.4976 18.3235 28.3332 21.159 28.3332 24.6568Z" stroke="#222222" stroke-width="2"/>
</svg>
