<svg width="167" height="64" viewBox="0 0 167 64" fill="none" xmlns="http://www.w3.org/2000/svg">
<g filter="url(#filter0_d_18_3547)">
<path d="M38.52 35.14C36.2933 35.14 34.6467 34.56 33.58 33.4C32.5133 32.24 31.98 30.4333 31.98 27.98C31.98 23.2333 34.1867 20.86 38.6 20.86C39.0267 20.86 39.4667 20.8933 39.92 20.96C40.3733 21.0133 40.7933 21.1 41.18 21.22C41.5667 21.3267 41.8867 21.4533 42.14 21.6C42.4733 21.8 42.64 22 42.64 22.2C42.64 22.36 42.58 22.5733 42.46 22.84C42.34 23.0933 42.1933 23.32 42.02 23.52C41.86 23.72 41.7067 23.82 41.56 23.82C41.4933 23.82 41.34 23.76 41.1 23.64C40.8733 23.52 40.5533 23.4 40.14 23.28C39.7267 23.16 39.2 23.1 38.56 23.1C37.24 23.1 36.26 23.5 35.62 24.3C34.9933 25.1 34.68 26.3333 34.68 28C34.68 29.64 34.9933 30.8667 35.62 31.68C36.26 32.4933 37.2267 32.9 38.52 32.9C39.1733 32.9 39.7267 32.8333 40.18 32.7C40.6333 32.5533 41 32.4067 41.28 32.26C41.5733 32.1133 41.76 32.04 41.84 32.04C42.0133 32.04 42.18 32.1467 42.34 32.36C42.5 32.56 42.6267 32.78 42.72 33.02C42.8133 33.26 42.86 33.4333 42.86 33.54C42.86 33.7 42.8 33.8533 42.68 34C42.56 34.1333 42.3933 34.26 42.18 34.38C41.8867 34.54 41.5333 34.68 41.12 34.8C40.7067 34.9067 40.2733 34.9867 39.82 35.04C39.3667 35.1067 38.9333 35.14 38.52 35.14ZM48.9828 35.14C47.9428 35.14 47.1628 34.8733 46.6428 34.34C46.1228 33.7933 45.8628 33.08 45.8628 32.2C45.8628 31.64 45.9761 31.1333 46.2028 30.68C46.4295 30.2267 46.7761 29.84 47.2428 29.52C47.7228 29.1867 48.3495 28.94 49.1228 28.78C49.8961 28.6067 50.8295 28.5133 51.9228 28.5V27.74C51.9228 27.34 51.7828 27.02 51.5028 26.78C51.2361 26.54 50.7828 26.42 50.1428 26.42C49.6228 26.42 49.1695 26.48 48.7828 26.6C48.3961 26.72 48.0828 26.84 47.8428 26.96C47.6161 27.08 47.4628 27.14 47.3828 27.14C47.2628 27.14 47.1295 27.0467 46.9828 26.86C46.8361 26.6733 46.7095 26.4667 46.6028 26.24C46.5095 26.0133 46.4628 25.8467 46.4628 25.74C46.4628 25.5267 46.6295 25.32 46.9628 25.12C47.2961 24.9067 47.7495 24.7333 48.3228 24.6C48.9095 24.4667 49.5561 24.4 50.2628 24.4C51.2361 24.4 52.0295 24.54 52.6428 24.82C53.2561 25.0867 53.7095 25.4667 54.0028 25.96C54.2961 26.44 54.4428 27.0067 54.4428 27.66V31.68C54.4428 32.32 54.4628 32.8267 54.5028 33.2C54.5428 33.56 54.5828 33.8333 54.6228 34.02C54.6628 34.1933 54.6828 34.3333 54.6828 34.44C54.6828 34.5467 54.6095 34.64 54.4628 34.72C54.3161 34.7867 54.1361 34.8467 53.9228 34.9C53.7095 34.94 53.5028 34.9733 53.3028 35C53.1028 35.0133 52.9495 35.02 52.8428 35.02C52.6428 35.02 52.4961 34.9467 52.4028 34.8C52.3095 34.64 52.2428 34.4533 52.2028 34.24C52.1628 34.0133 52.1228 33.8133 52.0828 33.64C51.9628 33.7867 51.7695 33.98 51.5028 34.22C51.2361 34.46 50.8961 34.6733 50.4828 34.86C50.0695 35.0467 49.5695 35.14 48.9828 35.14ZM49.6628 33.12C50.1695 33.12 50.6095 32.9933 50.9828 32.74C51.3695 32.4733 51.6828 32.16 51.9228 31.8V30.28C51.4295 30.28 50.9695 30.3067 50.5428 30.36C50.1295 30.4133 49.7561 30.5 49.4228 30.62C49.1028 30.74 48.8561 30.9133 48.6828 31.14C48.5095 31.3533 48.4228 31.6267 48.4228 31.96C48.4228 32.32 48.5228 32.6067 48.7228 32.82C48.9361 33.02 49.2495 33.12 49.6628 33.12ZM59.9413 35.04C59.2346 35.04 58.8813 34.8467 58.8813 34.46V27.9C58.8813 27.2733 58.8613 26.78 58.8213 26.42C58.7813 26.06 58.7413 25.7867 58.7013 25.6C58.6613 25.4133 58.6413 25.2733 58.6413 25.18C58.6413 25.0733 58.7146 24.9867 58.8613 24.92C59.0079 24.84 59.1879 24.78 59.4013 24.74C59.6146 24.6867 59.8213 24.6533 60.0213 24.64C60.2346 24.6133 60.3879 24.6 60.4813 24.6C60.6813 24.6 60.8279 24.6733 60.9213 24.82C61.0146 24.9667 61.0813 25.14 61.1213 25.34C61.1746 25.54 61.2213 25.7267 61.2613 25.9C61.5946 25.4867 62.0213 25.1333 62.5413 24.84C63.0746 24.5467 63.6546 24.4 64.2813 24.4C65.2946 24.4 66.0546 24.6733 66.5613 25.22C67.0679 25.7533 67.3213 26.56 67.3213 27.64V34.46C67.3213 34.8467 66.9679 35.04 66.2613 35.04H65.8813C65.1746 35.04 64.8213 34.8467 64.8213 34.46V27.98C64.8213 27.5133 64.7013 27.1533 64.4613 26.9C64.2213 26.6333 63.8413 26.5 63.3213 26.5C62.8946 26.5 62.5146 26.6333 62.1813 26.9C61.8613 27.1667 61.6013 27.4467 61.4013 27.74V34.46C61.4013 34.8467 61.0479 35.04 60.3413 35.04H59.9413ZM76.1141 35.14C74.4474 35.14 73.1941 34.7133 72.3541 33.86C71.5274 32.9933 71.1141 31.64 71.1141 29.8C71.1141 28.8533 71.2274 28.04 71.4541 27.36C71.6807 26.68 72.0074 26.12 72.4341 25.68C72.8741 25.24 73.4007 24.92 74.0141 24.72C74.6407 24.5067 75.3474 24.4 76.1341 24.4C76.6274 24.4 77.1141 24.4467 77.5941 24.54C78.0874 24.6333 78.5007 24.7733 78.8341 24.96C79.1674 25.1467 79.3341 25.3667 79.3341 25.62C79.3341 25.7267 79.2807 25.8933 79.1741 26.12C79.0674 26.3467 78.9407 26.5533 78.7941 26.74C78.6607 26.9133 78.5341 27 78.4141 27C78.3874 27 78.3474 26.9867 78.2941 26.96C78.2407 26.9333 78.1807 26.9067 78.1141 26.88C77.9407 26.7867 77.6941 26.6867 77.3741 26.58C77.0674 26.4733 76.6807 26.42 76.2141 26.42C75.3874 26.42 74.7674 26.6867 74.3541 27.22C73.9407 27.74 73.7341 28.58 73.7341 29.74C73.7341 30.8867 73.9207 31.74 74.2941 32.3C74.6807 32.8467 75.3207 33.12 76.2141 33.12C76.7074 33.12 77.1207 33.06 77.4541 32.94C77.8007 32.82 78.0741 32.72 78.2741 32.64C78.3407 32.6133 78.4007 32.5933 78.4541 32.58C78.5074 32.5533 78.5474 32.54 78.5741 32.54C78.7074 32.54 78.8407 32.6267 78.9741 32.8C79.1207 32.9733 79.2407 33.1667 79.3341 33.38C79.4407 33.5933 79.4941 33.76 79.4941 33.88C79.4941 34.1067 79.3674 34.3 79.1141 34.46C78.8741 34.62 78.5674 34.7533 78.1941 34.86C77.8341 34.9533 77.4607 35.02 77.0741 35.06C76.7007 35.1133 76.3807 35.14 76.1141 35.14ZM87.5611 35.14C85.8011 35.14 84.5078 34.6733 83.6811 33.74C82.8544 32.8067 82.4411 31.5067 82.4411 29.84C82.4411 28.56 82.6344 27.52 83.0211 26.72C83.4211 25.92 83.9811 25.3333 84.7011 24.96C85.4211 24.5867 86.2678 24.4 87.2411 24.4C88.2544 24.4 89.0678 24.6267 89.6811 25.08C90.3078 25.52 90.7678 26.1333 91.0611 26.92C91.3544 27.6933 91.5011 28.58 91.5011 29.58C91.5011 29.6733 91.4411 29.8067 91.3211 29.98C91.2144 30.1533 91.0878 30.3067 90.9411 30.44C90.7944 30.5733 90.6811 30.64 90.6011 30.64H85.0811C85.1478 31.5333 85.4011 32.1733 85.8411 32.56C86.2811 32.9333 86.8811 33.12 87.6411 33.12C88.1211 33.12 88.5344 33.06 88.8811 32.94C89.2411 32.82 89.5344 32.7067 89.7611 32.6C90.0011 32.48 90.1611 32.42 90.2411 32.42C90.3611 32.42 90.4944 32.5133 90.6411 32.7C90.7878 32.8733 90.9078 33.0667 91.0011 33.28C91.1078 33.48 91.1611 33.64 91.1611 33.76C91.1611 33.9733 91.0411 34.1667 90.8011 34.34C90.5744 34.5 90.2744 34.6467 89.9011 34.78C89.5278 34.9 89.1344 34.9867 88.7211 35.04C88.3078 35.1067 87.9211 35.14 87.5611 35.14ZM85.0811 28.84H89.0011C89.0011 28.0933 88.8544 27.5067 88.5611 27.08C88.2811 26.64 87.8344 26.42 87.2211 26.42C86.6478 26.42 86.1678 26.6067 85.7811 26.98C85.4078 27.3533 85.1744 27.9733 85.0811 28.84ZM98.1023 35.14C97.7023 35.14 97.329 35.0867 96.9823 34.98C96.649 34.8733 96.3557 34.7 96.1023 34.46C95.849 34.22 95.649 33.9067 95.5023 33.52C95.369 33.12 95.3023 32.64 95.3023 32.08V20.5C95.3023 20.1267 95.6557 19.94 96.3623 19.94H96.7423C97.449 19.94 97.8023 20.1267 97.8023 20.5V32.04C97.8023 32.44 97.8757 32.72 98.0223 32.88C98.1823 33.04 98.3957 33.12 98.6623 33.12C98.8223 33.12 98.949 33.1067 99.0423 33.08C99.149 33.0533 99.2357 33.04 99.3023 33.04C99.4223 33.04 99.5223 33.1333 99.6023 33.32C99.6823 33.5067 99.7423 33.7067 99.7823 33.92C99.8357 34.12 99.8623 34.2467 99.8623 34.3C99.8623 34.5533 99.7557 34.7467 99.5423 34.88C99.329 35 99.0823 35.0733 98.8023 35.1C98.5357 35.1267 98.3023 35.14 98.1023 35.14Z" fill="#33562B"/>
<path d="M118.137 33.8047L129.804 22.1374" stroke="#33562B" stroke-width="3" stroke-linecap="round" stroke-linejoin="round"/>
<path d="M118.137 22.1367L129.804 33.804" stroke="#33562B" stroke-width="3" stroke-linecap="round" stroke-linejoin="round"/>
<rect x="4.5" y="0.5" width="158" height="55" rx="14.5" stroke="#33562B" shape-rendering="crispEdges"/>
</g>
<defs>
<filter id="filter0_d_18_3547" x="0" y="0" width="167" height="64" filterUnits="userSpaceOnUse" color-interpolation-filters="sRGB">
<feFlood flood-opacity="0" result="BackgroundImageFix"/>
<feColorMatrix in="SourceAlpha" type="matrix" values="0 0 0 0 0 0 0 0 0 0 0 0 0 0 0 0 0 0 127 0" result="hardAlpha"/>
<feOffset dy="4"/>
<feGaussianBlur stdDeviation="2"/>
<feComposite in2="hardAlpha" operator="out"/>
<feColorMatrix type="matrix" values="0 0 0 0 0 0 0 0 0 0 0 0 0 0 0 0 0 0 0.25 0"/>
<feBlend mode="normal" in2="BackgroundImageFix" result="effect1_dropShadow_18_3547"/>
<feBlend mode="normal" in="SourceGraphic" in2="effect1_dropShadow_18_3547" result="shape"/>
</filter>
</defs>
</svg>
