<svg width="14" height="13" viewBox="0 0 14 13" fill="none" xmlns="http://www.w3.org/2000/svg">
<path d="M7.40501 1.77641L8.55601 4.04082C8.64996 4.23143 8.83788 4.36104 9.04929 4.39154L11.6175 4.75751C12.1499 4.83375 12.3692 5.47419 11.9777 5.84016L10.1142 7.609C9.95756 7.75386 9.88709 7.96734 9.92624 8.1732L10.3647 10.6663C10.4587 11.1848 9.89492 11.5813 9.4173 11.3373L7.1153 10.1631C6.92739 10.064 6.70032 10.064 6.50457 10.1631L4.20258 11.3373C3.72495 11.5813 3.1612 11.1848 3.25516 10.6663L3.69363 8.1732C3.73278 7.96734 3.66232 7.75386 3.50572 7.609L1.6422 5.84016C1.25853 5.47419 1.46994 4.83375 2.00238 4.75751L4.57058 4.39154C4.78199 4.36104 4.96991 4.23143 5.06387 4.04082L6.21487 1.77641C6.45759 1.3037 7.14662 1.3037 7.38152 1.77641H7.40501Z" fill="#E9AB3C" stroke="#E9AB3C" stroke-width="2" stroke-linecap="round" stroke-linejoin="round"/>
</svg>
