<svg width="23" height="22" viewBox="0 0 23 22" fill="none" xmlns="http://www.w3.org/2000/svg">
<path d="M12.1059 1.6786L14.2511 6.01288C14.4262 6.37772 14.7765 6.62582 15.1705 6.68419L19.9571 7.38468C20.9494 7.53062 21.3581 8.75647 20.6284 9.45696L17.1552 12.8427C16.8633 13.1199 16.732 13.5286 16.8049 13.9226L17.6222 18.6947C17.7973 19.687 16.7466 20.4459 15.8564 19.9789L11.5659 17.7315C11.2157 17.5418 10.7925 17.5418 10.4276 17.7315L6.13717 19.9789C5.24697 20.4459 4.19625 19.687 4.37137 18.6947L5.1886 13.9226C5.26157 13.5286 5.13023 13.1199 4.83836 12.8427L1.36514 9.45696C0.650061 8.75647 1.04408 7.53062 2.03643 7.38468L6.82306 6.68419C7.21708 6.62582 7.56732 6.37772 7.74244 6.01288L9.88767 1.6786C10.3401 0.7738 11.6243 0.7738 12.0621 1.6786H12.1059Z" stroke="#303030" stroke-width="2" stroke-linecap="round" stroke-linejoin="round"/>
</svg>
