<svg width="25" height="23" viewBox="0 0 25 23" fill="none" xmlns="http://www.w3.org/2000/svg">
<path d="M13.8014 1.74532L16.1612 6.50574C16.3538 6.90645 16.7391 7.17894 17.1725 7.24305L22.4378 8.01241C23.5294 8.17269 23.9788 9.51907 23.1762 10.2884L19.3556 14.007C19.0346 14.3116 18.8901 14.7604 18.9704 15.1931L19.8693 20.4344C20.062 21.5243 18.9062 22.3578 17.927 21.8449L13.2075 19.3765C12.8222 19.1682 12.3567 19.1682 11.9553 19.3765L7.23585 21.8449C6.25663 22.3578 5.10084 21.5243 5.29347 20.4344L6.19242 15.1931C6.27269 14.7604 6.12821 14.3116 5.80716 14.007L1.98661 10.2884C1.20003 9.51907 1.63345 8.17269 2.72504 8.01241L7.99032 7.24305C8.42375 7.17894 8.80901 6.90645 9.00165 6.50574L11.3614 1.74532C11.859 0.75156 13.2717 0.75156 13.7532 1.74532H13.8014Z" stroke="#E9AB3C" stroke-width="2" stroke-linecap="round" stroke-linejoin="round"/>
</svg>
