<svg width="42" height="48" viewBox="0 0 42 48" fill="none" xmlns="http://www.w3.org/2000/svg">
<path d="M0 15C0 6.71572 6.71573 0 15 0H27C35.2843 0 42 6.71573 42 15V34.9091C42 42.139 35.9987 48 28.5957 48H13.4043C6.00129 48 0 42.139 0 34.9091V15Z" fill="#D1E6CC"/>
<path d="M11.0003 19.0743C11.0238 19.8297 11.112 20.4291 11.2709 21.0226C11.5651 22.1257 12.0417 23.1508 12.6182 24.1339C13.136 25.0212 13.7126 25.8604 14.3657 26.6518C14.9011 27.3052 15.4659 27.9347 16.0249 28.5701C16.2073 28.7739 16.4132 28.9538 16.6132 29.1336C17.1074 29.5712 17.5958 30.0149 18.1018 30.4345C19.1314 31.2858 20.2199 32.0471 21.3966 32.6826C22.5616 33.306 23.7736 33.7856 25.0974 33.9475C25.6681 34.0194 26.2388 34.0194 26.8095 33.9355C27.7568 33.7916 28.6158 33.4319 29.3807 32.8564C30.0396 32.3648 30.5162 31.7354 30.781 30.956C31.0046 30.3146 31.0399 29.6552 30.9634 28.9778C30.9281 28.666 30.7927 28.4382 30.5398 28.2644C30.0514 27.9347 29.5748 27.593 29.0747 27.2812C28.3569 26.8316 27.6156 26.43 26.8095 26.1542C26.4095 26.0163 25.9976 25.9144 25.5681 25.9564C25.1092 25.9983 24.7503 26.1962 24.5267 26.6098C24.3325 26.9695 24.1384 27.3292 23.9324 27.6889C23.8442 27.8447 23.7383 27.9946 23.6383 28.1445C23.603 28.1984 23.5618 28.2164 23.4971 28.1744C23.35 28.0725 23.1793 27.9946 23.044 27.8807C22.5027 27.4191 21.9614 26.9575 21.4437 26.4779C20.0963 25.219 18.796 23.9061 17.5781 22.5213C17.3075 22.2156 17.0427 21.9099 16.8486 21.5442C16.8015 21.4603 16.7956 21.4063 16.8839 21.3523C17.0133 21.2744 17.131 21.1845 17.2604 21.1126C17.6429 20.8967 18.0312 20.6929 18.4136 20.4831C18.649 20.3512 18.8255 20.1654 18.9373 19.9196C19.0785 19.6019 19.0902 19.2721 19.0373 18.9304C18.9726 18.4868 18.8196 18.0672 18.6431 17.6535C18.3077 16.8742 17.8782 16.1488 17.4134 15.4415C17.1545 15.0578 16.878 14.6861 16.6073 14.3084C16.5191 14.1885 16.3896 14.1226 16.2367 14.0866C15.7483 13.9847 15.2541 13.9727 14.7599 14.0507C13.7361 14.2065 12.9007 14.6921 12.2535 15.4894C11.3886 16.5685 10.9885 17.8274 11.0003 19.0743Z" stroke="#33562B" stroke-width="2" stroke-miterlimit="10"/>
</svg>
