<svg width="24" height="24" viewBox="0 0 24 24" fill="none" xmlns="http://www.w3.org/2000/svg">
<path d="M12 5.25C7.11592 5.25 4.14018 8.11251 2.65854 10.1093C1.81551 11.2455 1.81551 12.7545 2.65854 13.8907C4.14018 15.8875 7.11592 18.75 12 18.75C16.8841 18.75 19.8598 15.8875 21.3415 13.8907C22.1845 12.7545 22.1845 11.2455 21.3415 10.1093C19.8598 8.11251 16.8841 5.25 12 5.25Z" stroke="black" stroke-width="1.5" stroke-linecap="round" stroke-linejoin="round"/>
<path d="M12 15.75C14.0711 15.75 15.75 14.0711 15.75 12C15.75 9.92893 14.0711 8.25 12 8.25C9.92893 8.25 8.25 9.92893 8.25 12C8.25 14.0711 9.92893 15.75 12 15.75Z" stroke="black" stroke-width="1.5" stroke-linecap="round" stroke-linejoin="round"/>
<line x1="19.7651" y1="3.8839" x2="2.47286" y2="21.1762" stroke="black" stroke-width="1.5" stroke-linecap="round"/>
</svg>
