<svg width="15" height="24" viewBox="0 0 15 24" fill="none" xmlns="http://www.w3.org/2000/svg">
<path d="M7.5 24C2.81684 24 0 10.848 0 7.41257C0 3.32571 3.36494 0 7.5 0C11.6351 0 15 3.32571 15 7.41257C15 10.848 12.1832 24 7.5 24ZM7.5 1.8C4.36748 1.8 1.82123 4.31657 1.82123 7.41257C1.82123 11.4789 4.97803 22.2 7.5 22.2C10.022 22.2 13.1788 11.4789 13.1788 7.41257C13.1788 4.31657 10.6325 1.8 7.5 1.8Z" fill="#303030"/>
<path d="M7.4997 11.2152C5.35238 11.2152 3.604 9.49065 3.604 7.36493C3.604 5.23922 5.35238 3.51465 7.4997 3.51465C9.64702 3.51465 11.3919 5.24265 11.3919 7.36493C11.3919 9.48722 9.64702 11.2152 7.4997 11.2152ZM7.4997 5.31808C6.3584 5.31808 5.42523 6.23693 5.42523 7.36836C5.42523 8.49979 6.35493 9.41865 7.4997 9.41865C8.64448 9.41865 9.5707 8.49979 9.5707 7.36836C9.5707 6.23693 8.64101 5.31808 7.4997 5.31808Z" fill="#303030"/>
</svg>
