<svg width="52" height="12" viewBox="0 0 52 12" fill="none" xmlns="http://www.w3.org/2000/svg">
<g clip-path="url(#clip0_95_7356)">
<path d="M10.4626 5.95417C10.6651 5.95417 10.8296 6.12524 10.8296 6.33602V6.41199C10.8296 9.57265 8.68692 12 5.59074 12C2.49456 12 0 9.22168 0 6.03064C0 2.83959 2.55298 0 5.73726 0C7.33717 0 8.9239 0.702422 10.0112 1.94649C10.1446 2.09893 10.1351 2.33569 9.99145 2.47784L9.56273 2.9038C9.41197 3.05331 9.17218 3.04301 9.03461 2.88027C8.22853 1.9259 7.01823 1.31269 5.79615 1.31269C3.31619 1.31269 1.37943 3.40476 1.37943 5.98456C1.37943 8.39672 3.28698 10.6868 5.67884 10.6868C7.2552 10.6868 8.94274 9.38687 9.25368 7.72027C9.29749 7.48499 9.12318 7.26686 8.8928 7.26686H6.80858C6.606 7.26686 6.44158 7.09579 6.44158 6.88501V6.33553C6.44158 6.12475 6.606 5.95368 6.80858 5.95368H10.4626V5.95417Z" fill="black"/>
<path d="M13.6657 9.09384L12.5995 11.5325C12.5402 11.6687 12.4092 11.756 12.2655 11.756H11.5909C11.3237 11.756 11.1461 11.4683 11.2573 11.2153L15.9685 0.513312C16.0995 0.216266 16.5046 0.216266 16.6356 0.513312L21.3468 11.2153C21.4579 11.4683 21.2803 11.756 21.0132 11.756H20.3386C20.1949 11.756 20.0644 11.6687 20.0045 11.5325L18.9384 9.09384C18.8791 8.95757 18.7481 8.87032 18.6044 8.87032H13.9997C13.856 8.87032 13.7255 8.95757 13.6657 9.09384ZM15.9661 3.69603L14.5617 7.02187C14.4553 7.27431 14.6329 7.55714 14.8976 7.55714H17.7064C17.9712 7.55714 18.1488 7.27431 18.0423 7.02187L16.6379 3.69603C16.5093 3.39163 16.0948 3.39163 15.9661 3.69603Z" fill="black"/>
<path d="M24.2542 10.4432H26.8807C27.0833 10.4432 27.2477 10.6143 27.2477 10.8251V11.3746C27.2477 11.5853 27.0833 11.7564 26.8807 11.7564H22.8748C22.6722 11.7564 22.5078 11.5853 22.5078 11.3746V0.625988C22.5078 0.415212 22.6722 0.244141 22.8748 0.244141H23.5207C23.7233 0.244141 23.8877 0.415212 23.8877 0.625988V10.0614C23.8877 10.2722 24.0521 10.4432 24.2547 10.4432H24.2542Z" fill="black"/>
<path d="M29.9037 10.4432H32.5301C32.7327 10.4432 32.8971 10.6143 32.8971 10.8251V11.3746C32.8971 11.5853 32.7327 11.7564 32.5301 11.7564H28.5242C28.3216 11.7564 28.1572 11.5853 28.1572 11.3746V0.625988C28.1572 0.415212 28.3216 0.244141 28.5242 0.244141H29.1701C29.3727 0.244141 29.5371 0.415212 29.5371 0.625988V10.0614C29.5371 10.2722 29.7015 10.4432 29.9041 10.4432H29.9037Z" fill="black"/>
<path d="M44.6196 6.00025C44.6196 9.4202 42.0224 12.0005 38.8235 12.0005C35.6246 12.0005 33.0273 9.4202 33.0273 6.00025C33.0273 2.58029 35.6543 0 38.824 0C41.9936 0 44.6201 2.70234 44.6201 6.00025H44.6196ZM43.2407 6.00025C43.2407 3.46603 41.4208 1.34357 38.824 1.34357C36.2272 1.34357 34.4072 3.46603 34.4072 6.00025C34.4072 8.53446 36.4321 10.6569 38.824 10.6569C41.2158 10.6569 43.2407 8.62612 43.2407 6.00025Z" fill="black"/>
<path d="M46.967 11.7559H46.3211C46.1185 11.7559 45.9541 11.5849 45.9541 11.3741V0.625988C45.9541 0.415212 46.1185 0.244141 46.3211 0.244141H47.5389C50.9432 0.244141 51.9999 1.46566 51.9999 3.57244C51.9999 5.99979 50.2243 6.93161 48.126 6.93161H47.7005C47.498 6.93161 47.3335 7.10268 47.3335 7.31346V11.3746C47.3335 11.5853 47.1691 11.7564 46.9665 11.7564L46.967 11.7559ZM47.334 5.26746C47.334 5.47824 47.4984 5.64931 47.701 5.64931H47.7745C49.1831 5.64931 50.7091 5.37432 50.7091 3.54204C50.7091 1.70977 49.0654 1.52644 47.701 1.52644C47.4984 1.52644 47.334 1.69751 47.334 1.90829V5.26746Z" fill="black"/>
</g>
<defs>
<clipPath id="clip0_95_7356">
<rect width="52" height="12" fill="white"/>
</clipPath>
</defs>
</svg>
