<svg width="29" height="29" viewBox="0 0 29 29" fill="none" xmlns="http://www.w3.org/2000/svg">
<path d="M11.575 15.3721C9.30404 15.7462 7.03311 16.1199 4.76219 16.494C4.61576 16.749 4.3541 17.097 3.9289 17.2604C2.97735 17.626 1.75408 16.8591 1.26145 15.8941C0.673219 14.742 1.25038 13.5491 1.32788 13.3952C5.54013 10.5961 9.75188 7.79756 13.9641 4.99847C14.0195 3.66582 14.0753 2.33266 14.1307 1C14.3979 1.12924 15.2236 1.56977 15.7309 2.566C16.2245 3.53507 16.1138 4.43524 16.0645 4.73194C18.3872 5.59339 22.3776 7.51996 25.0571 11.6728C27.6043 15.62 28.9533 21.5561 27.0004 23.0246C26.2778 23.5682 25.7721 22.9964 23.4363 23.197C21.1558 23.3927 20.0583 24.0736 16.8651 25.2574C15.4828 25.7698 13.465 26.4668 10.9304 27.1568C10.7995 26.754 10.6526 26.153 10.6637 25.4243C10.6838 24.0726 11.2343 23.1206 12.0641 21.7256C12.4893 21.011 13.2964 19.6733 14.6978 18.2934C15.1743 17.8242 15.5628 17.5043 16.7317 16.3608C17.8669 15.2504 18.0395 15.0246 18.1985 14.7279C18.978 13.2775 18.5805 11.7286 18.5654 11.7291C18.5488 11.7291 19.062 13.5436 18.0999 14.8948C17.1901 16.1727 15.4707 16.3467 15.1089 16.3829C13.3029 16.5629 11.9634 15.6572 11.575 15.3721Z" stroke="#303030" stroke-width="2" stroke-miterlimit="10" stroke-linejoin="round"/>
<path d="M12.918 9.557C13.1761 9.63205 13.8034 9.77468 14.5457 9.52933C15.3827 9.25258 15.8545 8.65171 16.0134 8.42871" stroke="#303030" stroke-width="2" stroke-miterlimit="10" stroke-linecap="round"/>
</svg>
