<svg width="267" height="53" viewBox="0 0 267 53" fill="none" xmlns="http://www.w3.org/2000/svg">
<g clip-path="url(#clip0_1_167)">
<path d="M46 28.0793V46.5431C46 47.0812 45.7401 47.5994 45.2902 47.9083C42.8607 49.5922 40.2812 50.8378 37.5518 51.6548C34.5625 52.5516 31.3632 53 27.9639 53C23.7148 53 19.8757 52.3424 16.4264 51.0271C12.9772 49.7118 10.0478 47.8784 7.60835 45.5368C5.16888 43.1952 3.29928 40.3952 1.97957 37.1468C0.659857 33.8985 0 30.3412 0 26.495C0 22.6488 0.639861 19.0218 1.90958 15.7735C3.17931 12.5251 4.98892 9.72514 7.32841 7.38353C9.6679 5.04193 12.5073 3.21846 15.8366 1.93307C19.1758 0.637714 22.915 0 27.0641 0C29.1737 0 31.1532 0.169393 32.9828 0.498214C34.8224 0.836999 36.5221 1.29536 38.0917 1.88325C39.6614 2.47114 41.1011 3.17861 42.3908 4.0156C43.2606 4.5736 44.0704 5.17146 44.8403 5.79921C45.4901 6.33728 45.6401 7.26396 45.1902 7.97142L43.1806 11.15C42.7507 11.8475 42.1808 12.266 41.491 12.4255C40.7911 12.5849 40.0413 12.4055 39.2215 11.9073C38.4316 11.449 37.6418 11.0006 36.842 10.5422C36.0522 10.0839 35.1724 9.69524 34.1926 9.35646C33.2228 9.01767 32.133 8.74864 30.9133 8.52942C29.7035 8.31021 28.3038 8.21057 26.7242 8.21057C24.1547 8.21057 21.8353 8.63903 19.7557 9.50592C17.6762 10.3629 15.9065 11.5984 14.4469 13.2027C12.9872 14.8069 11.8574 16.73 11.0676 18.982C10.2778 21.2339 9.87785 23.7449 9.87785 26.5149C9.87785 29.4843 10.3078 32.1248 11.1576 34.4565C12.0074 36.7881 13.2071 38.761 14.7568 40.3753C16.3065 41.9895 18.1661 43.225 20.3556 44.072C22.5351 44.919 24.9746 45.3474 27.664 45.3474C29.5836 45.3474 31.3032 45.1481 32.8129 44.7396C33.9826 44.4208 35.1324 44.0222 36.2621 43.5339C36.862 43.2749 37.2319 42.677 37.2319 42.0194V35.3433C37.2319 34.4266 36.4921 33.6892 35.5723 33.6892H30.6833C30.0635 33.6892 29.5736 33.5198 29.2236 33.1711C28.8737 32.8223 28.7038 32.4038 28.7038 31.8957V28.0993C28.7038 27.1826 29.4436 26.4452 30.3634 26.4452H44.3104C45.2302 26.4452 45.97 27.1826 45.97 28.0993L46 28.0793Z" fill="white"/>
<path d="M97.8837 50.7322C98.3115 51.8211 97.5057 53 96.3417 53H91.3177C90.482 53 89.8055 52.7902 89.2783 52.3706C88.751 51.951 88.363 51.4315 88.0944 50.8021L84.6224 41.2813C84.3836 40.6219 83.7668 40.1923 83.0704 40.1923H63.9296C63.2332 40.1923 62.6164 40.6319 62.3776 41.2813L58.9056 50.8021C58.7166 51.3516 58.3485 51.8611 57.7914 52.3107C57.2442 52.7702 56.5578 52.99 55.7519 52.99H50.6583C49.4943 52.99 48.6885 51.8111 49.1163 50.7222L68.2074 2.04899C68.4561 1.40961 69.063 1 69.7494 1H77.3103C77.9868 1 78.6036 1.4196 78.8523 2.05898L97.8936 50.7422L97.8837 50.7322ZM79.3895 33.3689C80.5435 33.3689 81.3394 32.22 80.9415 31.131L75.4499 16.0655C75.1415 15.2963 74.8132 14.3871 74.4849 13.3281C74.1467 12.2692 73.8183 11.1303 73.4801 9.91143C73.1717 11.1303 72.8434 12.2792 72.5151 13.3481C72.1768 14.4171 71.8585 15.3462 71.5501 16.1354L66.0983 31.131C65.7004 32.22 66.5062 33.3589 67.6503 33.3589H79.3895V33.3689Z" fill="white"/>
<path d="M134 46.6849V51.3413C134 52.2606 133.247 53 132.312 53H104.688C103.753 53 103 52.2606 103 51.3413V2.65872C103 1.73943 103.753 1 104.688 1H111.157C112.093 1 112.845 1.73943 112.845 2.65872V43.3674C112.845 44.2867 113.598 45.0261 114.533 45.0261H132.312C133.247 45.0261 134 45.7656 134 46.6849Z" fill="white"/>
<path d="M170 46.6849V51.3413C170 52.2606 169.247 53 168.312 53H140.688C139.753 53 139 52.2606 139 51.3413V2.65872C139 1.73943 139.753 1 140.688 1H147.157C148.093 1 148.845 1.73943 148.845 2.65872V43.3674C148.845 44.2867 149.598 45.0261 150.533 45.0261H168.312C169.247 45.0261 170 45.7656 170 46.6849Z" fill="white"/>
<path d="M223 26.5C223 30.3056 222.367 33.8224 221.101 37.0602C219.834 40.2979 218.046 43.1073 215.724 45.4684C213.413 47.8395 210.619 49.6825 207.363 51.0075C204.107 52.3325 200.49 53 196.51 53C192.531 53 188.953 52.3325 185.697 51.0075C182.441 49.6825 179.647 47.8295 177.326 45.4684C174.995 43.0974 173.196 40.2979 171.919 37.0602C170.643 33.8224 170 30.2957 170 26.5C170 22.7043 170.633 19.1776 171.919 15.9398C173.196 12.7021 175.005 9.89267 177.326 7.53158C179.657 5.16053 182.441 3.31748 185.697 1.99248C188.953 0.667481 192.561 0 196.51 0C199.163 0 201.655 0.308835 203.997 0.916541C206.338 1.52425 208.479 2.39098 210.438 3.4968C212.388 4.61259 214.147 5.95752 215.704 7.5515C217.262 9.14549 218.578 10.9188 219.664 12.8814C220.749 14.844 221.573 16.966 222.146 19.2673C222.709 21.5586 223 23.9795 223 26.51V26.5ZM213.051 26.5C213.051 23.6508 212.669 21.1004 211.896 18.8389C211.122 16.5774 210.026 14.6647 208.599 13.0806C207.172 11.4966 205.444 10.2912 203.404 9.45432C201.364 8.61748 199.073 8.19906 196.51 8.19906C193.947 8.19906 191.656 8.61748 189.616 9.45432C187.576 10.2912 185.838 11.4966 184.411 13.0806C182.974 14.6547 181.868 16.5774 181.104 18.8389C180.331 21.1004 179.949 23.6508 179.949 26.5C179.949 29.3492 180.331 31.8996 181.104 34.1611C181.878 36.4226 182.984 38.3353 184.411 39.8994C185.848 41.4635 187.586 42.669 189.616 43.5058C191.656 44.3427 193.947 44.7611 196.51 44.7611C199.073 44.7611 201.364 44.3427 203.404 43.5058C205.444 42.669 207.172 41.4635 208.599 39.8994C210.026 38.3353 211.122 36.4226 211.896 34.1611C212.669 31.8996 213.051 29.3492 213.051 26.5Z" fill="white"/>
<path d="M246.836 1C250.303 1 253.302 1.40953 255.842 2.21859C258.373 3.03765 260.465 4.17634 262.118 5.63465C263.772 7.09297 264.998 8.85094 265.795 10.8886C266.592 12.9262 267 15.1537 267 17.5809C267 20.0081 266.582 22.4053 265.745 24.5029C264.908 26.6005 263.653 28.4084 261.979 29.9166C260.305 31.4249 258.203 32.6035 255.683 33.4426C253.162 34.2816 250.214 34.7011 246.846 34.7011H241.297C240.381 34.7011 239.644 35.4403 239.644 36.3592V51.3419C239.644 52.2609 238.906 53 237.99 53H231.654C230.737 53 230 52.2609 230 51.3419V2.65809C230 1.73915 230.737 1 231.654 1H246.856H246.836ZM246.836 27.1398C248.61 27.1398 250.144 26.9201 251.459 26.4706C252.774 26.0311 253.87 25.3919 254.736 24.5628C255.603 23.7338 256.261 22.7249 256.689 21.5463C257.117 20.3677 257.337 19.0392 257.337 17.5709C257.337 16.1026 257.117 14.9239 256.689 13.7952C256.261 12.6665 255.613 11.7076 254.756 10.9186C253.9 10.1295 252.804 9.52017 251.489 9.10065C250.174 8.68114 248.62 8.47138 246.826 8.47138H241.277C240.361 8.47138 239.624 9.21053 239.624 10.1295V25.4718C239.624 26.3907 240.361 27.1299 241.277 27.1299H246.826L246.836 27.1398Z" fill="white"/>
</g>
<defs>
<clipPath id="clip0_1_167">
<rect width="267" height="53" fill="white"/>
</clipPath>
</defs>
</svg>
