<svg width="24" height="24" viewBox="0 0 24 24" fill="none" xmlns="http://www.w3.org/2000/svg">
<mask id="path-1-inside-1_14_2707" fill="white">
<path d="M15.917 19.5L8.45685 12L15.917 4.5"/>
</mask>
<path d="M14.499 20.9104C15.278 21.6936 16.5443 21.6969 17.3274 20.918C18.1106 20.139 18.1139 18.8727 17.335 18.0896L14.499 20.9104ZM8.45685 12L7.03887 10.5896C6.26284 11.3697 6.26284 12.6303 7.03887 13.4104L8.45685 12ZM17.335 5.91044C18.1139 5.12731 18.1106 3.86099 17.3274 3.08202C16.5443 2.30306 15.278 2.30643 14.499 3.08956L17.335 5.91044ZM17.335 18.0896L9.87483 10.5896L7.03887 13.4104L14.499 20.9104L17.335 18.0896ZM9.87483 13.4104L17.335 5.91044L14.499 3.08956L7.03887 10.5896L9.87483 13.4104Z" fill="#5A5A5F" mask="url(#path-1-inside-1_14_2707)"/>
</svg>
