<svg width="16" height="16" viewBox="0 0 16 16" fill="none" xmlns="http://www.w3.org/2000/svg">
<path d="M7.09898 12.3154L6.39188 11.6083L7.09898 12.3154L11.7073 7.70711C11.7265 7.68785 11.7464 7.66814 11.7667 7.64797C11.9738 7.44243 12.2285 7.1896 12.378 6.88803L11.5914 6.49826L12.378 6.88803C12.6553 6.32848 12.6553 5.67152 12.378 5.11197L11.482 5.55598L12.378 5.11197C12.2285 4.81039 11.9738 4.55756 11.7667 4.35202C11.7464 4.33186 11.7265 4.31215 11.7073 4.29289C11.688 4.27364 11.6683 4.25378 11.6481 4.23346C11.4426 4.02636 11.1898 3.77162 10.8882 3.62218C10.3286 3.34489 9.67169 3.34489 9.11213 3.62218C8.81056 3.77162 8.55773 4.02636 8.35219 4.23346C8.33202 4.25378 8.31231 4.27364 8.29306 4.29289L3.68477 8.90118C3.6717 8.91425 3.65822 8.92765 3.6444 8.94138C3.49223 9.09263 3.29961 9.28409 3.16273 9.52585C3.02584 9.76762 2.96077 10.0313 2.90937 10.2396C2.9047 10.2585 2.90015 10.277 2.89566 10.2949L2.56547 11.6157C2.56267 11.6269 2.55974 11.6385 2.55672 11.6505C2.5199 11.797 2.4689 11.9999 2.45133 12.1795C2.43111 12.3862 2.42443 12.8382 2.79321 13.207C3.16198 13.5757 3.61394 13.5691 3.82064 13.5488C4.00025 13.5313 4.20316 13.4803 4.34965 13.4434C4.36165 13.4404 4.37328 13.4375 4.38448 13.4347L5.70527 13.1045C5.72321 13.1 5.74166 13.0955 5.76057 13.0908C5.96887 13.0394 6.23254 12.9743 6.47431 12.8374C6.71607 12.7006 6.90752 12.5079 7.05877 12.3558C7.07251 12.342 7.08591 12.3285 7.09898 12.3154Z" stroke="#222222" stroke-width="2"/>
<path d="M8.3335 5.00033L10.3335 3.66699L12.3335 5.66699L11.0002 7.66699L8.3335 5.00033Z" fill="#222222"/>
</svg>
