<svg width="47" height="55" viewBox="0 0 47 55" fill="none" xmlns="http://www.w3.org/2000/svg">
<path d="M0 15C0 6.71573 6.71573 0 15 0H32C40.2843 0 47 6.71573 47 15V40C47 48.2843 40.2843 55 32 55H15C6.71573 55 0 48.2843 0 40V15Z" fill="#D1E6CC"/>
<path d="M0 15C0 6.71573 6.71573 0 15 0H32C40.2843 0 47 6.71573 47 15V40C47 48.2843 40.2843 55 32 55H15C6.71573 55 0 48.2843 0 40V15Z" fill="#D1E6CC"/>
<path d="M34.8075 20H13.1925C12.5339 20 12 20.5458 12 21.219V34.7809C12 35.4542 12.5339 36 13.1925 36H34.8075C35.4661 36 36 35.4542 36 34.7809V21.219C36 20.5458 35.4661 20 34.8075 20Z" stroke="#33562B" stroke-width="2" stroke-miterlimit="10"/>
<path d="M12.2529 20C13.4604 21.0667 15.1896 22.56 17.3362 24.2667C22.5088 28.3657 23.6119 28.5638 24.4169 28.5333C25.1622 28.5029 26.1163 28.2895 30.9014 24.2667C32.9585 22.5295 34.6132 21.0362 35.7312 20" stroke="#33562B" stroke-width="2" stroke-miterlimit="10"/>
</svg>
