<svg width="47" height="55" viewBox="0 0 47 55" fill="none" xmlns="http://www.w3.org/2000/svg">
<path d="M0 15C0 6.71573 6.71573 0 15 0H32C40.2843 0 47 6.71573 47 15V40C47 48.2843 40.2843 55 32 55H15C6.71573 55 0 48.2843 0 40V15Z" fill="#F8E9CF"/>
<path d="M25.2164 16.7453L27.5762 21.5057C27.7688 21.9064 28.1541 22.1789 28.5875 22.243L33.8528 23.0124C34.9444 23.1727 35.3939 24.5191 34.5912 25.2884L30.7707 29.007C30.4496 29.3116 30.3052 29.7604 30.3854 30.1931L31.2844 35.4344C31.477 36.5243 30.3212 37.3578 29.342 36.8449L24.6225 34.3765C24.2372 34.1682 23.7717 34.1682 23.3704 34.3765L18.6509 36.8449C17.6717 37.3578 16.5159 36.5243 16.7085 35.4344L17.6075 30.1931C17.6877 29.7604 17.5433 29.3116 17.2222 29.007L13.4016 25.2884C12.6151 24.5191 13.0485 23.1727 14.1401 23.0124L19.4054 22.243C19.8388 22.1789 20.2241 21.9064 20.4167 21.5057L22.7764 16.7453C23.2741 15.7516 24.6867 15.7516 25.1683 16.7453H25.2164Z" stroke="#E9AB3C" stroke-width="2" stroke-linecap="round" stroke-linejoin="round"/>
</svg>
