<svg width="57" height="97" viewBox="0 0 57 97" fill="none" xmlns="http://www.w3.org/2000/svg">
<g clip-path="url(#clip0_95_7351)">
<path d="M8.79976 57.0171C8.63758 57.467 8.28078 58.634 7.19894 59.5826C6.09992 60.5463 5.19934 60.4522 3.9992 61.1618C2.36785 62.1237 1.65616 63.701 1.20014 64.7136C0.477003 66.3173 0.808998 66.8632 0.870054 73.3814C0.896766 76.2104 0.852882 78.0739 0.461739 80.4079C0.301466 81.3659 0.125929 82.1471 0 82.6666C1.46345 81.0572 2.68648 79.8902 2.9994 80.1011C3.51647 80.453 1.03033 84.2194 1.59892 84.6392C2.07783 84.993 4.95511 83.139 5.79845 80.2987C6.35178 78.4371 5.56186 77.7294 4.999 74.1833C4.62693 71.8455 4.00683 67.6123 5.9988 63.925C6.59791 62.8163 7.63969 61.3745 8.19874 61.5571C8.7845 61.7491 8.24071 63.5278 8.59942 66.0952C9.15656 70.0912 11.118 70.3924 10.9997 73.197C10.8909 75.7719 9.21762 76.0373 9.20044 78.919C9.19472 79.9204 9.59731 81.1005 10.4006 83.4571C11.3794 86.3238 11.8545 86.7623 12.6005 89.3749C13.0737 91.0294 13.4 92.5315 13.4 92.5315C14.0144 95.3492 13.9285 96.1736 14.6001 96.6743C14.9665 96.9472 16.0197 97.4705 18.7997 96.0833C17.8075 94.9539 16.5024 93.2467 15.3996 90.9541C14.1689 88.3943 11.9365 83.747 13.6003 78.7214C14.8844 74.8402 17.8762 72.5909 19.4007 71.6196C21.7304 72.6963 22.1997 73.579 22.1997 74.1851C22.1997 75.8735 18.5535 76.4645 18.399 78.5256C18.3379 79.3444 18.8912 79.5326 20.3986 81.6821C22.4821 84.6523 21.8124 84.8443 23.5983 87.2066C24.9988 89.0587 25.9929 89.7137 25.9986 91.1518C26.0024 92.187 25.4892 92.6237 25.7983 93.1244C26.5214 94.2951 30.4767 93.7681 30.7973 92.5333C30.9442 91.9724 30.2935 91.4416 29.3968 90.5607C28.3207 89.5029 24.9358 86.1807 23.9971 83.0637C23.293 80.726 23.9914 78.5858 24.3978 77.3417C25.7048 73.3362 28.3779 72.6172 28.1985 69.8447C28.105 68.4236 27.401 68.5835 26.5977 65.7018C26.1131 63.9626 25.6532 62.3138 26.197 60.7703C26.8171 59.0085 28.4065 58.3441 29.7975 57.4161C34.9491 53.9792 34.2279 49.0364 39.7974 42.6198C41.2551 40.9389 42.5239 39.8754 43.9969 39.068C45.3325 38.3376 45.5557 38.5183 46.9963 37.6864C49.6045 36.1806 50.1102 34.8686 51.1958 35.1209C52.3502 35.39 53.3767 37.244 53.3977 37.2836C53.4683 37.4153 53.5293 37.549 53.5293 37.549C53.5293 37.549 53.5293 37.5527 53.5331 37.5565C53.5541 37.6017 54.905 40.7601 53.5961 43.0113C52.6764 44.5924 51.3141 44.2291 50.9955 45.5768C50.8219 46.3071 51.0852 46.996 51.5946 48.338C52.0277 49.4787 52.2452 50.049 52.5944 50.113C53.7125 50.3201 55.3343 46.3165 55.7941 45.1815C56.6184 43.1468 57.0305 42.1304 56.9943 40.6434C56.9542 38.9494 56.3665 37.7203 55.5938 36.1053C54.6379 34.1045 54.159 33.105 53.1935 32.5535C51.6442 31.6707 49.7591 32.1281 47.1947 32.7511C47.1947 32.7511 46.9505 32.8113 43.7946 33.7374C43.5714 33.5172 42.8673 32.7831 43.0696 32.1996C43.3272 31.4561 44.9776 31.1625 45.9946 31.6651C48.2651 32.7888 48.3796 38.3866 46.4277 39.5743C45.6492 40.0486 44.7448 39.7004 43.9358 40.5361C43.3882 41.1027 43.268 41.816 43.1784 42.3525C43.0543 43.0903 42.9551 44.7185 43.5943 44.982C44.0942 45.1872 44.5369 44.3288 46.3934 43.0094C48.1773 41.7426 48.7135 41.7313 49.3928 40.8391C50.2056 39.7719 50.3391 38.6106 50.3926 38.0779C51.1271 30.803 47.6183 28.4577 47.6183 28.4577C46.38 27.6295 44.3079 26.9462 42.5926 27.6201C41.5336 28.0361 41.484 28.6629 40.7933 28.804C37.2063 29.5381 30.8201 18.382 32.793 16.3755C33.083 16.08 33.7871 15.9821 35.1933 15.7845C36.1569 15.649 37.2635 15.4927 38.58 15.7337C40.3793 16.0612 40.5777 16.767 41.3925 16.575C42.9418 16.2099 44.14 13.2171 43.1917 11.6435C42.7872 10.9716 42.2186 10.9358 40.5911 10.262C38.5762 9.42812 37.2692 8.58111 34.9911 7.10542C32.8732 5.73326 31.8142 5.04812 30.9919 3.94888C29.5399 1.99887 29.2804 -0.0565506 28.998 -8.29772e-05C28.6049 0.0808539 29.454 4.02606 28.5973 4.34039C27.8246 4.62461 26.1054 1.78617 25.7983 1.97252C25.5273 2.13627 27.1758 4.14464 26.5977 5.91772C26.176 7.21271 25.0064 7.03766 23.398 8.48323C21.5148 10.1754 22.2055 11.2313 19.5972 15.9802C18.6756 17.6573 17.8743 18.83 18.1967 19.1368C18.6451 19.5622 20.6065 17.7063 21.1961 18.1505C22.3276 19.0031 16.9413 27.2361 17.9964 28.0154C18.544 28.42 20.2631 26.3929 20.9958 26.8314C22.4898 27.7255 17.527 37.4718 18.5955 38.0779C19.1526 38.3922 21.2381 34.6051 21.9956 34.9213C22.9267 35.3091 22.7473 42.2433 18.5955 47.3499C15.2145 51.5096 10.1392 53.2997 8.79594 57.0171H8.79976Z" fill="#BAD9B3"/>
</g>
<defs>
<clipPath id="clip0_95_7351">
<rect width="57" height="97" fill="white"/>
</clipPath>
</defs>
</svg>
