<svg width="47" height="55" viewBox="0 0 47 55" fill="none" xmlns="http://www.w3.org/2000/svg">
<path d="M0 15C0 6.71573 6.71573 0 15 0H32C40.2843 0 47 6.71573 47 15V40C47 48.2843 40.2843 55 32 55H15C6.71573 55 0 48.2843 0 40V15Z" fill="#D1E6CC"/>
<path d="M0 15C0 6.71573 6.71573 0 15 0H32C40.2843 0 47 6.71573 47 15V40C47 48.2843 40.2843 55 32 55H15C6.71573 55 0 48.2843 0 40V15Z" fill="#D1E6CC"/>
<path d="M13.0003 22.328C13.025 23.1211 13.1176 23.7506 13.2844 24.3738C13.5933 25.532 14.0937 26.6083 14.6992 27.6406C15.2428 28.5722 15.8482 29.4535 16.534 30.2844C17.0961 30.9705 17.6892 31.6314 18.2761 32.2986C18.4676 32.5126 18.6838 32.7015 18.8939 32.8903C19.4128 33.3498 19.9256 33.8156 20.4569 34.2562C21.538 35.15 22.6809 35.9495 23.9164 36.6167C25.1396 37.2713 26.4123 37.7749 27.8023 37.9448C28.4015 38.0204 29.0008 38.0204 29.6 37.9322C30.5946 37.7812 31.4966 37.4035 32.2997 36.7992C32.9916 36.2831 33.492 35.6221 33.77 34.8038C34.0048 34.1303 34.0419 33.4379 33.9615 32.7266C33.9245 32.3993 33.7824 32.1601 33.5167 31.9776C33.004 31.6314 32.5036 31.2726 31.9785 30.9453C31.2248 30.4732 30.4464 30.0515 29.6 29.7619C29.1799 29.6171 28.7475 29.5101 28.2965 29.5542C27.8146 29.5982 27.4378 29.806 27.203 30.2403C26.9992 30.618 26.7953 30.9956 26.5791 31.3733C26.4864 31.537 26.3752 31.6943 26.2702 31.8517C26.2331 31.9083 26.1899 31.9272 26.1219 31.8832C25.9675 31.7762 25.7883 31.6943 25.6462 31.5747C25.0779 31.0901 24.5095 30.6054 23.9659 30.1018C22.5511 28.78 21.1859 27.4014 19.907 25.9474C19.6229 25.6264 19.3449 25.3054 19.141 24.9214C19.0916 24.8333 19.0854 24.7766 19.1781 24.72C19.314 24.6381 19.4375 24.5437 19.5734 24.4682C19.975 24.2416 20.3827 24.0276 20.7843 23.8073C21.0314 23.6688 21.2167 23.4736 21.3341 23.2156C21.4824 22.882 21.4947 22.5358 21.4391 22.177C21.3712 21.7112 21.2106 21.2705 21.0252 20.8362C20.6731 20.0179 20.2221 19.2563 19.7341 18.5135C19.4622 18.1107 19.1719 17.7204 18.8877 17.3239C18.795 17.198 18.6591 17.1287 18.4985 17.091C17.9858 16.9839 17.4668 16.9714 16.9479 17.0532C15.8729 17.2168 14.9957 17.7267 14.3161 18.5639C13.408 19.6969 12.9879 21.0188 13.0003 22.328Z" stroke="#33562B" stroke-width="2" stroke-miterlimit="10"/>
</svg>
