<svg width="167" height="64" viewBox="0 0 167 64" fill="none" xmlns="http://www.w3.org/2000/svg">
<g filter="url(#filter0_d_18_3544)">
<rect x="4" width="159" height="56" rx="15" fill="#33562B" shape-rendering="crispEdges"/>
<path d="M36.06 35.14C35.1 35.14 34.2733 35.04 33.58 34.84C32.9 34.64 32.3867 34.4133 32.04 34.16C31.7067 33.9333 31.54 33.7067 31.54 33.48C31.54 33.3067 31.6 33.1 31.72 32.86C31.8533 32.62 32.0067 32.4133 32.18 32.24C32.3533 32.0533 32.4933 31.96 32.6 31.96C32.6533 31.96 32.72 31.98 32.8 32.02C32.88 32.06 32.98 32.1133 33.1 32.18C33.3667 32.3133 33.7133 32.4667 34.14 32.64C34.58 32.8133 35.1 32.9 35.7 32.9C36.0733 32.9 36.42 32.8467 36.74 32.74C37.0733 32.62 37.34 32.4333 37.54 32.18C37.74 31.9133 37.84 31.58 37.84 31.18C37.84 30.7267 37.6867 30.3667 37.38 30.1C37.0867 29.8333 36.7067 29.6 36.24 29.4C35.7733 29.2 35.2867 28.9867 34.78 28.76C34.4067 28.6 34.04 28.42 33.68 28.22C33.3333 28.0067 33.02 27.7533 32.74 27.46C32.46 27.1533 32.2333 26.7867 32.06 26.36C31.9 25.92 31.82 25.3933 31.82 24.78C31.82 23.9 32.0333 23.1733 32.46 22.6C32.9 22.0133 33.4733 21.58 34.18 21.3C34.8867 21.0067 35.6467 20.86 36.46 20.86C36.86 20.86 37.2533 20.8933 37.64 20.96C38.0267 21.0133 38.38 21.1 38.7 21.22C39.02 21.3267 39.2867 21.4533 39.5 21.6C39.78 21.7867 39.92 21.9867 39.92 22.2C39.92 22.3467 39.8667 22.54 39.76 22.78C39.6667 23.02 39.5467 23.2333 39.4 23.42C39.2533 23.6067 39.1133 23.7 38.98 23.7C38.9133 23.7 38.8267 23.6733 38.72 23.62C38.6267 23.5667 38.4933 23.5067 38.32 23.44C38.1333 23.36 37.9 23.2867 37.62 23.22C37.3533 23.14 37.02 23.1 36.62 23.1C36.1133 23.1 35.7 23.1733 35.38 23.32C35.0733 23.4533 34.8533 23.6333 34.72 23.86C34.5867 24.0867 34.52 24.34 34.52 24.62C34.52 25.02 34.6267 25.3467 34.84 25.6C35.0533 25.8533 35.3333 26.0667 35.68 26.24C36.04 26.4 36.4333 26.56 36.86 26.72C37.2733 26.8933 37.6933 27.0867 38.12 27.3C38.56 27.5 38.96 27.7533 39.32 28.06C39.6933 28.3667 39.9867 28.7533 40.2 29.22C40.4267 29.6867 40.54 30.26 40.54 30.94C40.54 31.6733 40.42 32.3067 40.18 32.84C39.94 33.3733 39.6067 33.8133 39.18 34.16C38.7533 34.4933 38.2733 34.74 37.74 34.9C37.2067 35.06 36.6467 35.14 36.06 35.14ZM46.6 35.14C45.56 35.14 44.78 34.8733 44.26 34.34C43.74 33.7933 43.48 33.08 43.48 32.2C43.48 31.64 43.5933 31.1333 43.82 30.68C44.0467 30.2267 44.3933 29.84 44.86 29.52C45.34 29.1867 45.9667 28.94 46.74 28.78C47.5133 28.6067 48.4467 28.5133 49.54 28.5V27.74C49.54 27.34 49.4 27.02 49.12 26.78C48.8533 26.54 48.4 26.42 47.76 26.42C47.24 26.42 46.7867 26.48 46.4 26.6C46.0133 26.72 45.7 26.84 45.46 26.96C45.2333 27.08 45.08 27.14 45 27.14C44.88 27.14 44.7467 27.0467 44.6 26.86C44.4533 26.6733 44.3267 26.4667 44.22 26.24C44.1267 26.0133 44.08 25.8467 44.08 25.74C44.08 25.5267 44.2467 25.32 44.58 25.12C44.9133 24.9067 45.3667 24.7333 45.94 24.6C46.5267 24.4667 47.1733 24.4 47.88 24.4C48.8533 24.4 49.6467 24.54 50.26 24.82C50.8733 25.0867 51.3267 25.4667 51.62 25.96C51.9133 26.44 52.06 27.0067 52.06 27.66V31.68C52.06 32.32 52.08 32.8267 52.12 33.2C52.16 33.56 52.2 33.8333 52.24 34.02C52.28 34.1933 52.3 34.3333 52.3 34.44C52.3 34.5467 52.2267 34.64 52.08 34.72C51.9333 34.7867 51.7533 34.8467 51.54 34.9C51.3267 34.94 51.12 34.9733 50.92 35C50.72 35.0133 50.5667 35.02 50.46 35.02C50.26 35.02 50.1133 34.9467 50.02 34.8C49.9267 34.64 49.86 34.4533 49.82 34.24C49.78 34.0133 49.74 33.8133 49.7 33.64C49.58 33.7867 49.3867 33.98 49.12 34.22C48.8533 34.46 48.5133 34.6733 48.1 34.86C47.6867 35.0467 47.1867 35.14 46.6 35.14ZM47.28 33.12C47.7867 33.12 48.2267 32.9933 48.6 32.74C48.9867 32.4733 49.3 32.16 49.54 31.8V30.28C49.0467 30.28 48.5867 30.3067 48.16 30.36C47.7467 30.4133 47.3733 30.5 47.04 30.62C46.72 30.74 46.4733 30.9133 46.3 31.14C46.1267 31.3533 46.04 31.6267 46.04 31.96C46.04 32.32 46.14 32.6067 46.34 32.82C46.5533 33.02 46.8667 33.12 47.28 33.12ZM59.6184 35.04C59.3651 35.04 59.1451 35.0133 58.9584 34.96C58.7851 34.9067 58.6718 34.8067 58.6184 34.66L55.4184 25.24C55.4051 25.1867 55.3851 25.1333 55.3584 25.08C55.3451 25.0133 55.3384 24.9533 55.3384 24.9C55.3384 24.6333 55.7051 24.5 56.4384 24.5H56.9184C57.1718 24.5 57.3851 24.5267 57.5584 24.58C57.7451 24.6333 57.8651 24.7333 57.9184 24.88L59.2784 29.16C59.4384 29.6667 59.5784 30.1867 59.6984 30.72C59.8318 31.24 59.9318 31.7 59.9984 32.1H60.0784C60.1318 31.7 60.2184 31.24 60.3384 30.72C60.4584 30.2 60.6184 29.64 60.8184 29.04L62.1384 24.88C62.1918 24.7333 62.3051 24.6333 62.4784 24.58C62.6651 24.5267 62.8918 24.5 63.1584 24.5H63.4984C64.2051 24.5 64.5584 24.6333 64.5584 24.9C64.5584 24.9933 64.5384 25.1067 64.4984 25.24L61.2984 34.66C61.2451 34.8067 61.1251 34.9067 60.9384 34.96C60.7651 35.0133 60.5451 35.04 60.2784 35.04H59.6184ZM72.2502 35.14C70.4902 35.14 69.1968 34.6733 68.3702 33.74C67.5435 32.8067 67.1302 31.5067 67.1302 29.84C67.1302 28.56 67.3235 27.52 67.7102 26.72C68.1102 25.92 68.6702 25.3333 69.3902 24.96C70.1102 24.5867 70.9568 24.4 71.9302 24.4C72.9435 24.4 73.7568 24.6267 74.3702 25.08C74.9968 25.52 75.4568 26.1333 75.7502 26.92C76.0435 27.6933 76.1902 28.58 76.1902 29.58C76.1902 29.6733 76.1302 29.8067 76.0102 29.98C75.9035 30.1533 75.7768 30.3067 75.6302 30.44C75.4835 30.5733 75.3702 30.64 75.2902 30.64H69.7702C69.8368 31.5333 70.0902 32.1733 70.5302 32.56C70.9702 32.9333 71.5702 33.12 72.3302 33.12C72.8102 33.12 73.2235 33.06 73.5702 32.94C73.9302 32.82 74.2235 32.7067 74.4502 32.6C74.6902 32.48 74.8502 32.42 74.9302 32.42C75.0502 32.42 75.1835 32.5133 75.3302 32.7C75.4768 32.8733 75.5968 33.0667 75.6902 33.28C75.7968 33.48 75.8502 33.64 75.8502 33.76C75.8502 33.9733 75.7302 34.1667 75.4902 34.34C75.2635 34.5 74.9635 34.6467 74.5902 34.78C74.2168 34.9 73.8235 34.9867 73.4102 35.04C72.9968 35.1067 72.6102 35.14 72.2502 35.14ZM69.7702 28.84H73.6902C73.6902 28.0933 73.5435 27.5067 73.2502 27.08C72.9702 26.64 72.5235 26.42 71.9102 26.42C71.3368 26.42 70.8568 26.6067 70.4702 26.98C70.0968 27.3533 69.8635 27.9733 69.7702 28.84Z" fill="white"/>
<path d="M115.75 28H132.25" stroke="white" stroke-width="3" stroke-linecap="round" stroke-linejoin="round"/>
<path d="M124 19.75V36.25" stroke="white" stroke-width="3" stroke-linecap="round" stroke-linejoin="round"/>
</g>
<defs>
<filter id="filter0_d_18_3544" x="0" y="0" width="167" height="64" filterUnits="userSpaceOnUse" color-interpolation-filters="sRGB">
<feFlood flood-opacity="0" result="BackgroundImageFix"/>
<feColorMatrix in="SourceAlpha" type="matrix" values="0 0 0 0 0 0 0 0 0 0 0 0 0 0 0 0 0 0 127 0" result="hardAlpha"/>
<feOffset dy="4"/>
<feGaussianBlur stdDeviation="2"/>
<feComposite in2="hardAlpha" operator="out"/>
<feColorMatrix type="matrix" values="0 0 0 0 0 0 0 0 0 0 0 0 0 0 0 0 0 0 0.25 0"/>
<feBlend mode="normal" in2="BackgroundImageFix" result="effect1_dropShadow_18_3544"/>
<feBlend mode="normal" in="SourceGraphic" in2="effect1_dropShadow_18_3544" result="shape"/>
</filter>
</defs>
</svg>
